<?xml version="1.0" encoding="UTF-8" standalone="no"?>
<!-- Created with Inkscape (http://www.inkscape.org/) -->

<svg
   width="233.00621mm"
   height="87.44162mm"
   viewBox="0 0 233.00621 87.44162"
   version="1.1"
   id="svg437"
   xml:space="preserve"
   inkscape:version="1.2.1 (9c6d41e4, 2022-07-14)"
   sodipodi:docname="ford-logo.svg"
   xmlns:inkscape="http://www.inkscape.org/namespaces/inkscape"
   xmlns:sodipodi="http://sodipodi.sourceforge.net/DTD/sodipodi-0.dtd"
   xmlns="http://www.w3.org/2000/svg"
   xmlns:svg="http://www.w3.org/2000/svg"><sodipodi:namedview
     id="namedview439"
     pagecolor="#ffffff"
     bordercolor="#000000"
     borderopacity="0.25"
     inkscape:showpageshadow="2"
     inkscape:pageopacity="0.0"
     inkscape:pagecheckerboard="0"
     inkscape:deskcolor="#d1d1d1"
     inkscape:document-units="mm"
     showgrid="false"
     inkscape:zoom="0.2102413"
     inkscape:cx="309.16856"
     inkscape:cy="233.06553"
     inkscape:window-width="1344"
     inkscape:window-height="430"
     inkscape:window-x="0"
     inkscape:window-y="23"
     inkscape:window-maximized="0"
     inkscape:current-layer="svg437"><inkscape:page
       x="0"
       y="0"
       width="233.00621"
       height="87.44162"
       id="page481" /><inkscape:page
       x="197.58051"
       y="-86.836151"
       width="233.0062"
       height="87.443024"
       id="page483" /></sodipodi:namedview><defs
     id="defs434" /><g
     inkscape:label="Ebene 1"
     inkscape:groupmode="layer"
     id="layer1"
     transform="translate(-22.419492,-86.836148)" /><g
     id="g451"
     transform="matrix(0.03527778,0,0,-0.03527778,0,87.441622)"><path
       d="m 538.527,1764.93 h 54.571 v 288.65 h -54.571 c -78.984,0 -38.773,-86.16 -117.757,-86.16 H 288.648 v 376.25 h 236.954 c 84.726,0 41.644,-152.22 126.375,-152.22 h 56.003 v 274.28 c -25.847,-2.87 -63.183,-4.3 -101.96,-4.3 H 0 v -57.45 c 0,-34.46 10.0508,-48.82 37.3359,-64.62 25.8516,-15.8 33.0313,-28.72 33.0313,-63.18 v -778.36 c 0,-34.46 -7.1797,-47.39 -33.0313,-63.18 C 10.0508,1418.84 0,1404.48 0,1370.01 v -57.44 h 371.941 v 57.44 c 0,34.47 -11.488,48.83 -44.515,64.63 -31.598,15.79 -38.778,28.72 -38.778,63.18 V 1851.1 H 420.77 c 78.984,0 38.773,-86.17 117.757,-86.17"
       style="fill:#100f0d;fill-opacity:1;fill-rule:nonzero;stroke:none"
       id="path453" /><path
       d="m 891.652,1638.56 c 0,170.89 34.465,251.31 101.961,251.31 68.937,0 101.967,-80.42 101.967,-251.31 0,-170.89 -33.03,-248.44 -101.967,-248.44 -67.496,0 -101.961,77.55 -101.961,248.44 z m 101.961,-346.09 c 190.997,0 320.247,139.3 320.247,346.09 0,208.23 -130.68,347.53 -320.247,347.53 -189.558,0 -318.804,-139.3 -318.804,-347.53 0,-206.79 127.808,-346.09 318.804,-346.09"
       style="fill:#100f0d;fill-opacity:1;fill-rule:nonzero;stroke:none"
       id="path455" /><path
       d="m 1376.93,1312.57 h 334.61 v 50.26 c 0,27.29 -8.62,40.21 -34.47,54.57 -24.41,12.93 -33.03,27.29 -33.03,54.58 v 90.47 c 0,147.91 33.03,248.44 90.47,287.21 1.44,-56 37.34,-99.09 97.66,-99.09 64.62,0 99.09,44.52 99.09,106.27 0,73.24 -50.27,129.25 -129.25,129.25 -107.71,0 -193.87,-107.71 -216.85,-275.73 -5.74,0 -8.61,1.44 -8.61,8.62 0,10.05 1.43,38.77 4.3,67.49 l 11.49,196.74 -216.84,-17.23 v -50.26 c 0,-73.24 58.88,-37.34 58.88,-109.14 v -334.6 c 0,-27.29 -7.18,-41.65 -28.73,-54.58 -21.54,-14.36 -28.72,-27.28 -28.72,-54.57 v -50.26"
       style="fill:#100f0d;fill-opacity:1;fill-rule:nonzero;stroke:none"
       id="path457" /><path
       d="m 2166.38,1637.12 c 0,145.04 43.08,234.08 113.45,234.08 47.39,0 86.16,-40.21 86.16,-86.16 v -294.4 c 0,-45.95 -38.77,-86.16 -86.16,-86.16 -70.37,0 -113.45,86.16 -113.45,232.64 z m 239.82,-330.29 219.72,5.74 -1.44,50.26 c -1.43,28.73 -8.61,41.65 -31.59,54.57 -20.1,11.49 -27.28,25.85 -27.28,53.14 v 1008.12 l -267.11,-17.23 v -50.27 c 0,-73.23 66.06,-37.33 66.06,-109.14 v -357.58 c -37.34,25.85 -84.73,41.65 -139.3,41.65 -168.02,0 -280.04,-142.17 -280.04,-353.27 0,-203.93 106.27,-340.35 262.8,-340.35 81.86,0 150.79,40.21 188.13,101.96 l 10.05,-87.6"
       style="fill:#100f0d;fill-opacity:1;fill-rule:nonzero;stroke:none"
       id="path459" /><path
       d="m 538.527,472.469 h 54.571 v 288.652 h -54.571 c -78.984,0 -38.773,-86.16 -117.757,-86.16 H 288.648 v 376.249 h 236.954 c 84.726,0 41.644,-152.23 126.375,-152.23 h 56.003 v 274.29 c -25.847,-2.87 -63.183,-4.31 -101.96,-4.31 H 0 v -57.44 c 0,-34.46 10.0508,-48.82 37.3359,-64.62 25.8516,-15.8 33.0313,-28.72 33.0313,-63.189 V 205.359 c 0,-34.461 -7.1797,-47.39 -33.0313,-63.187 C 10.0508,126.379 0,112.02 0,77.5508 V 20.1094 h 371.941 v 57.4414 c 0,34.4692 -11.488,48.8282 -44.515,64.6212 -31.598,15.797 -38.778,28.726 -38.778,63.187 v 353.27 H 420.77 c 78.984,0 38.773,-86.16 117.757,-86.16"
       style="fill:#100f0d;fill-opacity:1;fill-rule:nonzero;stroke:none"
       id="path461" /><path
       d="m 891.652,346.102 c 0,170.886 34.465,251.308 101.961,251.308 68.937,0 101.967,-80.422 101.967,-251.308 0,-170.903 -33.03,-248.4418 -101.967,-248.4418 -67.496,0 -101.961,77.5388 -101.961,248.4418 z M 993.613,0 c 190.997,0 320.247,139.301 320.247,346.102 0,208.226 -130.68,347.527 -320.247,347.527 -189.558,0 -318.804,-139.301 -318.804,-347.527 C 674.809,139.301 802.617,0 993.613,0"
       style="fill:#100f0d;fill-opacity:1;fill-rule:nonzero;stroke:none"
       id="path463" /><path
       d="m 1622.3,0 c 89.04,0 160.84,44.5195 201.05,107.711 l -2.87,-94.7813 175.2,5.7422 70.36,1.4375 -1.43,51.6992 c 0,27.2812 -8.62,40.2114 -30.16,53.1324 -21.54,11.489 -28.72,25.848 -28.72,53.137 V 690.75 l -264.24,-17.23 v -50.258 c 0,-73.242 56.01,-37.34 56.01,-109.141 v -290.09 c 0,-60.312 -43.08,-93.34 -90.47,-93.34 -44.52,0 -76.11,25.848 -76.11,90.469 v 469.59 l -267.11,-17.23 v -50.258 c 0,-73.242 58.88,-37.34 58.88,-109.141 V 202.488 C 1422.69,47.3906 1528.95,0 1622.3,0"
       style="fill:#100f0d;fill-opacity:1;fill-rule:nonzero;stroke:none"
       id="path465" /><path
       d="m 2139.06,20.1094 h 305.88 v 50.2617 c 0,27.2891 -4.31,40.2069 -20.1,54.5699 -14.36,12.93 -18.67,27.289 -18.67,54.571 V 468.16 c 0,57.449 38.77,96.219 93.34,96.219 48.83,0 76.11,-33.027 76.11,-91.91 V 179.512 c 0,-27.282 -4.3,-41.641 -18.66,-54.571 -15.8,-14.363 -20.11,-27.2808 -20.11,-54.5699 V 20.1094 h 305.88 v 50.2617 c 0,27.2891 -7.18,40.2069 -30.15,54.5699 -20.11,12.93 -27.29,27.289 -27.29,54.571 v 310.187 c 0,132.121 -83.29,203.93 -201.05,203.93 -89.03,0 -165.15,-41.649 -206.79,-109.149 l 2.87,106.27 -242.7,-17.23 v -50.258 c 0,-73.242 58.88,-37.34 58.88,-109.141 V 179.512 c 0,-27.282 -7.18,-41.641 -28.72,-54.571 -21.54,-14.363 -28.72,-27.2808 -28.72,-54.5699 V 20.1094"
       style="fill:#100f0d;fill-opacity:1;fill-rule:nonzero;stroke:none"
       id="path467" /><path
       d="m 3117.83,344.66 c 0,145.039 43.08,234.078 113.45,234.078 47.39,0 86.16,-40.207 86.16,-86.16 V 198.18 c 0,-45.95 -38.77,-86.16 -86.16,-86.16 -70.37,0 -113.45,86.16 -113.45,232.64 z m 239.82,-330.3006 219.72,5.75 -1.43,50.2617 c -1.44,28.7187 -8.62,41.6489 -31.6,54.5699 -20.1,11.489 -27.28,25.848 -27.28,53.137 V 1186.2 l -267.11,-17.24 v -50.26 c 0,-73.24 66.06,-37.34 66.06,-109.14 V 651.98 c -37.34,25.848 -84.73,41.649 -139.3,41.649 -168.02,0 -280.03,-142.18 -280.03,-353.277 C 2896.68,136.43 3002.95,0 3159.48,0 c 81.85,0 150.78,40.2109 188.12,101.961 l 10.05,-87.6016"
       style="fill:#100f0d;fill-opacity:1;fill-rule:nonzero;stroke:none"
       id="path469" /><path
       d="m 3853.24,202.488 c 0,70.371 53.14,119.192 143.61,124.942 v -84.731 c 0,-63.187 -40.21,-112.008 -86.16,-112.008 -34.47,0 -57.45,27.278 -57.45,71.797 z m 176.64,-188.1286 229.77,5.75 -1.43,50.2617 c -1.44,28.7187 -8.62,40.2069 -30.16,54.5699 -21.54,11.489 -28.72,25.848 -28.72,53.137 v 254.184 c 0,168.019 -101.96,261.367 -288.65,261.367 -153.66,0 -264.24,-63.188 -264.24,-152.231 0,-48.82 33.03,-93.339 93.35,-93.339 60.31,0 93.34,44.519 93.34,99.089 0,15.793 -2.87,30.153 -8.62,45.954 20.11,5.738 40.21,10.046 58.88,10.046 71.81,0 106.27,-48.82 106.27,-160.839 V 422.211 C 3774.26,417.898 3642.14,324.559 3642.14,178.078 3642.14,68.9297 3716.82,0 3827.4,0 c 89.03,0 157.96,44.5195 195.3,117.762 l 7.18,-103.4026"
       style="fill:#100f0d;fill-opacity:1;fill-rule:nonzero;stroke:none"
       id="path471" /><path
       d="m 4558.71,0 c 77.55,0 146.48,28.7188 202.49,77.5508 l -44.52,89.0392 c -28.72,-11.488 -56.01,-18.668 -80.42,-18.668 -35.9,0 -64.62,17.226 -64.62,81.848 v 347.531 h 147.91 V 673.52 H 4571.64 V 937.762 L 4469.68,923.398 C 4412.23,914.781 4395,898.98 4395,851.59 v -90.469 c 0,-90.473 -97.65,-41.652 -97.65,-132.121 v -51.699 h 66.06 v -370.5 C 4363.41,68.9297 4443.83,0 4558.71,0"
       style="fill:#100f0d;fill-opacity:1;fill-rule:nonzero;stroke:none"
       id="path473" /><path
       d="m 4853.26,952.121 c 0,-63.191 44.52,-106.269 107.71,-106.269 61.75,0 106.27,43.078 106.27,106.269 0,61.749 -44.52,106.269 -106.27,106.269 -63.19,0 -107.71,-44.52 -107.71,-106.269 z M 4815.93,20.1094 h 323.11 v 50.2617 c 0,27.2891 -7.18,40.2069 -28.72,54.5699 -20.1,12.93 -27.28,27.289 -27.28,54.571 V 690.75 l -268.55,-17.23 v -50.258 c 0,-73.242 58.88,-37.34 58.88,-109.141 V 179.512 c 0,-27.282 -7.18,-41.641 -28.72,-54.571 -21.54,-14.363 -28.72,-27.2808 -28.72,-54.5699 V 20.1094"
       style="fill:#100f0d;fill-opacity:1;fill-rule:nonzero;stroke:none"
       id="path475" /><path
       d="m 5415.95,346.102 c 0,170.886 34.46,251.308 101.96,251.308 68.93,0 101.96,-80.422 101.96,-251.308 0,-170.903 -33.03,-248.4418 -101.96,-248.4418 -67.5,0 -101.96,77.5388 -101.96,248.4418 z M 5517.91,0 c 190.99,0 320.24,139.301 320.24,346.102 0,208.226 -130.68,347.527 -320.24,347.527 -189.56,0 -318.81,-139.301 -318.81,-347.527 C 5199.1,139.301 5326.91,0 5517.91,0"
       style="fill:#100f0d;fill-opacity:1;fill-rule:nonzero;stroke:none"
       id="path477" /><path
       d="m 5901.23,20.1094 h 305.88 v 50.2617 c 0,27.2891 -4.31,40.2069 -20.11,54.5699 -14.36,12.93 -18.67,27.289 -18.67,54.571 V 468.16 c 0,57.449 38.78,96.219 93.35,96.219 48.83,0 76.11,-33.027 76.11,-91.91 V 179.512 c 0,-27.282 -4.31,-41.641 -18.67,-54.571 -15.79,-14.363 -20.1,-27.2808 -20.1,-54.5699 V 20.1094 h 305.88 v 50.2617 c 0,27.2891 -7.18,40.2069 -30.16,54.5699 -20.1,12.93 -27.28,27.289 -27.28,54.571 v 310.187 c 0,132.121 -83.29,203.93 -201.05,203.93 -89.04,0 -165.15,-41.649 -206.8,-109.149 l 2.88,106.27 -242.7,-17.23 v -50.258 c 0,-73.242 58.88,-37.34 58.88,-109.141 V 179.512 c 0,-27.282 -7.18,-41.641 -28.72,-54.571 -21.54,-14.363 -28.72,-27.2808 -28.72,-54.5699 V 20.1094"
       style="fill:#100f0d;fill-opacity:1;fill-rule:nonzero;stroke:none"
       id="path479" /></g></svg>
