<?xml version="1.0" encoding="UTF-8" standalone="no"?>
<!-- Created with Inkscape (http://www.inkscape.org/) -->

<svg
   version="1.1"
   id="svg823"
   width="1200.3721"
   height="293.13556"
   viewBox="0 0 1200.372 293.13556"
   sodipodi:docname="isocf-redrawn.svg"
   inkscape:version="1.2.1 (9c6d41e4, 2022-07-14)"
   xmlns:inkscape="http://www.inkscape.org/namespaces/inkscape"
   xmlns:sodipodi="http://sodipodi.sourceforge.net/DTD/sodipodi-0.dtd"
   xmlns="http://www.w3.org/2000/svg"
   xmlns:svg="http://www.w3.org/2000/svg">
  <defs
     id="defs827" />
  <sodipodi:namedview
     id="namedview825"
     pagecolor="#ffffff"
     bordercolor="#000000"
     borderopacity="0.25"
     inkscape:showpageshadow="2"
     inkscape:pageopacity="0.0"
     inkscape:pagecheckerboard="0"
     inkscape:deskcolor="#d1d1d1"
     showgrid="false"
     inkscape:zoom="1.0978763"
     inkscape:cx="492.76953"
     inkscape:cy="328.36121"
     inkscape:window-width="2560"
     inkscape:window-height="1395"
     inkscape:window-x="0"
     inkscape:window-y="23"
     inkscape:window-maximized="1"
     inkscape:current-layer="g829"
     showguides="true">
    <sodipodi:guide
       position="952.82227,167.17292"
       orientation="1,0"
       id="guide662"
       inkscape:locked="false" />
  </sodipodi:namedview>
  <g
     inkscape:groupmode="layer"
     inkscape:label="Image"
     id="g829"
     transform="translate(274.69492,153.28812)">
    <path
       d="m 924.00761,-102.63397 h -9.4438 c -1.39151,0 -2.8998,0.97309 -3.43986,2.20404 l -15.11203,34.773248 -16.5668,-34.817038 c -0.55465,-1.18716 -2.15539,-2.16025 -3.50797,-2.16025 l -9.94982,0.0156 c -1.25041,0 -1.8294,0.91956 -1.28933,2.04834 l 24.32716,50.887566 -12.73284,29.002835 c -0.57412,1.230952 0.0973,2.242964 1.44503,2.242964 h 9.58004 c 1.36719,0 2.90953,-1.012012 3.47391,-2.242964 l 34.67595,-79.749111 c 0.57899,-1.23095 -0.0829,-2.20404 -1.45964,-2.20404 m -122.24399,22.676611 c -2.14078,-6.860259 -8.6264,-11.847328 -15.51586,-11.847328 -7.54141,0 -14.23139,4.792452 -16.64464,11.847328 z m 12.7815,7.264091 c 0,0.282195 0,0.929298 -0.0389,1.698036 -0.044,0.929298 -1.23582,1.688306 -2.60787,1.688306 h -42.12491 c 1.06066,8.908606 8.68966,15.705615 17.78801,15.705615 6.95271,0 11.34619,-2.802489 14.9758,-6.47589 0.94877,-0.992549 2.45218,-1.06553 3.43013,-0.131173 l 5.39091,5.147627 c 1.00713,0.934164 1.11418,2.573815 0.21407,3.542038 -3.87774,4.189136 -11.34132,10.032517 -24.14227,10.032517 -17.65665,0 -30.98307,-13.413995 -30.98307,-31.206881 0,-18.094543 12.31441,-31.192287 29.22665,-31.192287 16.48895,0 28.87147,13.379939 28.87147,31.192287 M 268.2892,-83.623038 c -2.19431,-6.835925 -8.62643,-11.852193 -15.55479,-11.852193 -7.54143,0 -14.15841,4.82164 -16.60573,11.852193 z m 12.76689,7.298147 c 0,0.262738 -0.0234,0.948766 -0.0234,1.698039 -0.0981,0.929299 -1.28058,1.659114 -2.62831,1.659114 h -42.1152 c 1.03634,8.894007 8.69453,15.729942 17.78802,15.729942 6.96731,0 11.3608,-2.787892 14.9758,-6.500217 0.91471,-0.982821 2.45219,-1.075262 3.43014,-0.121441 l 5.40063,5.147628 c 0.97308,0.948759 1.08986,2.564083 0.15569,3.55663 -3.80963,4.189138 -11.28294,10.032523 -24.08876,10.032523 -17.63718,0 -30.9928,-13.409133 -30.9928,-31.202018 0,-18.09454 12.31928,-31.236079 29.24612,-31.236079 16.45003,0 28.85201,13.413997 28.85201,31.236079 m 459.10144,-54.372899 c -4.80706,0 -8.56316,3.81937 -8.56316,8.68966 0,4.82651 3.7561,8.62155 8.56316,8.62155 4.90435,0 8.70911,-3.79504 8.70911,-8.62155 0,-4.76325 -3.91666,-8.68966 -8.70911,-8.68966 m -377.44973,23.22926 c -7.91119,0 -12.36305,3.25011 -15.3407,5.60499 v -2.2381 c 0,-1.23097 -1.09472,-2.21865 -2.48137,-2.21865 h -8.28097 c -1.37692,0 -2.46191,1.07041 -2.46191,2.43272 v 55.062102 c 0,1.372052 1.08499,2.457044 2.46191,2.457044 h 8.66534 c 1.38178,0 2.45705,-1.084992 2.45705,-2.457044 v -38.04768 c 3.04575,-3.605281 6.91378,-7.745767 14.52331,-7.745767 4.40321,0 7.39545,1.98509 10.01306,5.371438 1.72236,2.218633 3.25011,5.094107 3.25011,12.922586 v 27.499423 c 0,1.372052 1.09471,2.457044 2.43757,2.457044 h 8.70914 c 1.38177,0 2.4327,-1.084992 2.4327,-2.457044 v -26.896108 c 0,-9.667619 -1.28446,-16.46463 -5.38116,-21.69983 -5.28386,-6.743494 -12.36793,-10.047124 -21.00408,-10.047124 m 80.64455,23.845492 c -2.17485,-6.835934 -8.62641,-11.852202 -15.54506,-11.852202 -7.52196,0 -14.173,4.821649 -16.63005,11.852202 z m 12.79122,7.298147 c 0,0.262729 -0.0389,0.948757 -0.0829,1.698039 -0.0635,0.92929 -1.21149,1.659105 -2.59327,1.659105 h -42.11518 c 1.03147,8.894016 8.6848,15.729946 17.74423,15.729946 6.97216,0 11.36565,-2.787893 14.99526,-6.500217 0.94389,-0.982816 2.45218,-1.075257 3.45446,-0.121441 l 5.36657,5.147627 c 1.01201,0.94876 1.09473,2.564083 0.23355,3.556631 -3.87776,4.189138 -11.36565,10.032522 -24.17634,10.032522 -17.61773,0 -30.92469,-13.409132 -30.92469,-31.202021 0,-18.09454 12.29494,-31.23607 29.21692,-31.23607 16.45489,0 28.88121,13.413987 28.88121,31.23607 m 288.43666,-26.30908 h -8.6702 c -1.39638,0 -2.4911,1.06553 -2.4911,2.40352 v 55.052372 c 0,1.362319 1.09472,2.437579 2.4911,2.437579 h 8.6702 c 1.34772,0 2.43757,-1.07526 2.43757,-2.437579 v -55.052372 c 0,-1.33799 -1.08985,-2.40352 -2.43757,-2.40352 m 111.50111,2.26729 c -0.253,-0.90983 -1.0412,-2.26729 -2.71005,-2.26729 l -10.59204,0.004 v -13.63783 c 0,-1.34773 -1.12391,-2.44732 -2.48137,-2.44732 h -8.6848 c -1.36232,0 -2.45704,1.09959 -2.45704,2.44732 v 13.6378 h -9.82331 c -2.10674,0 -2.79276,1.00228 -2.45218,2.43759 0.34564,1.435298 1.28448,7.473299 1.28448,7.473299 0.27713,1.075261 1.09959,2.422986 2.45217,2.422986 h 8.53884 v 25.665155 c 0,7.157052 1.63479,12.397122 4.93841,16.085118 4.11616,4.636761 10.0082,7.113264 17.14092,7.113264 0.84659,0 1.78562,-0.01946 2.67599,-0.116769 1.35746,-0.06814 2.46191,-1.337993 2.4765,-2.661389 l 0.0926,-8.193392 c 0.0195,-1.318532 -1.0558,-2.238099 -2.41325,-2.14079 -0.89038,0.07785 -1.76616,0.136233 -2.48137,0.136233 -3.02143,0 -5.9553,-1.123916 -7.31762,-2.763566 -1.27474,-1.464496 -1.48882,-3.799903 -1.48882,-6.816471 v -26.307393 l 13.60376,-0.04399 c 1.25528,0 2.71977,-0.506006 2.26729,-2.272157 l -2.56892,-7.755498 z m -359.78314,6.375412 c 1.38664,0 2.44245,-1.075266 2.44245,-2.418126 v -7.478166 c 0,-1.36232 -1.05581,-2.43272 -2.44245,-2.43272 h -11.32187 v -13.6378 c 0,-1.3526 -1.12391,-2.45218 -2.48136,-2.45218 h -8.68481 c -1.36718,0 -2.4619,1.09958 -2.4619,2.45218 v 13.6378 h -9.81844 c -2.10674,0 -2.79763,0.99741 -2.45218,2.43272 0.34563,1.4353 1.28447,7.478166 1.28447,7.478166 0.27753,1.070393 1.09959,2.418126 2.45218,2.418126 h 8.53397 v 25.665154 c 0,7.157048 1.63965,12.401984 4.94327,16.089983 4.11129,4.631892 10.0082,7.113262 17.13606,7.113262 0.85145,0 1.79048,-0.02336 2.68085,-0.121441 1.35259,-0.06345 2.46192,-1.337995 2.4765,-2.661392 l 0.0923,-8.193388 c 0.0195,-1.318533 -1.05579,-2.238099 -2.41325,-2.135925 -0.89038,0.07278 -1.76615,0.131562 -2.48137,0.131562 -3.0263,0 -5.96015,-1.123916 -7.31761,-2.763566 -1.27475,-1.459629 -1.48882,-3.795042 -1.48882,-6.816474 v -26.307393 h 11.32186 z m 226.97651,36.304163 -6.51482,-4.690277 c -1.08013,-0.783334 -2.54949,-0.549794 -3.49824,0.462216 -4.31078,5.035723 -9.41462,7.492766 -15.08771,7.492766 -10.78667,0 -18.37674,-7.546286 -18.37674,-18.269699 0,-10.392563 7.59007,-18.240506 17.66639,-18.240506 6.72889,0 11.51161,3.765845 14.40655,7.244629 0.87578,1.031472 2.34026,1.245551 3.33768,0.379505 l 6.34453,-5.347112 c 1.04606,-0.875777 1.265,-2.476505 0.40382,-3.512842 -6.16936,-7.546285 -15.17528,-11.715965 -24.49258,-11.715965 -17.81722,0 -31.23121,13.379943 -31.23121,31.192291 0,17.792887 13.73512,31.177693 31.94156,31.177693 10.05198,0 20.23047,-4.865431 25.76733,-12.693915 0.8028,-1.104453 0.41842,-2.695449 -0.66656,-3.478784 M 578.12889,-84.509843 c -3.4496,-2.325678 -8.0231,-4.10156 -12.09547,-5.828789 -7.85281,-3.318225 -14.79578,-6.038002 -14.79578,-12.265758 0,-6.49048 5.83365,-9.98873 12.00789,-9.98873 4.26698,0 8.53883,1.4499 12.64526,4.07723 1.0558,0.67143 2.3646,0.67143 3.18199,-0.31645 l 4.94327,-6.13531 c 0.79307,-0.96822 0.65197,-2.43271 -0.3503,-3.19172 -6.48076,-4.9822 -13.45779,-7.26896 -20.9019,-7.26896 -14.05137,0 -25.06671,9.67248 -25.06671,22.06961 0,7.541416 3.53717,13.676727 10.53852,18.313484 3.4496,2.242965 7.45871,3.916673 11.3462,5.493074 8.14959,3.362013 15.24826,6.558602 15.24826,14.35789 0,6.388313 -5.04545,10.596912 -12.52849,10.596912 -7.8966,0 -13.6378,-4.101559 -17.99237,-8.412333 -0.90496,-0.866046 -2.17971,-1.007144 -3.10414,-0.131561 l -5.83852,5.799595 c -0.9147,0.866048 -0.99741,2.379197 -0.15064,3.323091 7.43925,8.305294 17.18471,12.50416 27.68431,12.50416 14.83958,0 25.62137,-10.06658 25.62137,-24.001177 0,-7.886866 -3.22578,-14.255717 -10.39256,-18.994647 M 293.5799,-46.368419 h 8.65075 c 1.35745,0 2.45217,-1.084992 2.45217,-2.457044 v -36.704826 c 3.21606,-5.356836 9.25406,-9.088626 14.79578,-9.088626 0.99256,0 2.00457,0.07283 3.00198,0.199293 1.31853,0.19461 2.3646,-0.520604 2.3646,-1.897523 v -8.524235 c 0,-1.35746 -0.88064,-2.57868 -1.9997,-2.64679 -0.73468,-0.0272 -1.4499,-0.0732 -2.02402,-0.0732 -7.49276,0 -13.17558,3.00198 -16.49381,6.36399 v -2.69058 c 0,-1.36232 -1.10932,-2.43272 -2.46191,-2.43272 h -8.28584 c -1.38177,0 -2.4765,1.0704 -2.4765,2.43272 v 55.062099 c 0,1.372052 1.09473,2.457044 2.4765,2.457044 m -223.425524,0 h 13.005303 8.631277 13.000434 c 1.37692,0 2.46191,-1.084992 2.46191,-2.457044 v -7.492766 c 0,-1.372052 -1.08499,-2.476505 -2.46191,-2.476505 H 94.267461 v -57.451018 h 9.925489 c 1.32826,0 2.42784,-1.10445 2.42784,-2.46191 v -7.50736 c 0,-1.38178 -1.09958,-2.45705 -2.42784,-2.45705 H 91.790956 83.159679 70.616598 c -1.381783,0 -2.505702,1.07527 -2.505702,2.45705 v 7.50736 c 0,1.35746 1.123919,2.46191 2.505702,2.46191 h 10.110365 v 57.451027 H 70.154376 c -1.352588,0 -2.45704,1.104453 -2.45704,2.476505 v 7.492766 c 0,1.372052 1.104452,2.457044 2.45704,2.457044 m 61.679094,-2.457044 V -86.87353 c 3.0117,-3.60529 6.92837,-7.745767 14.54277,-7.745767 4.43728,0 7.48304,1.907242 9.96928,5.371438 1.88778,2.568939 3.27444,5.094107 3.27444,12.922586 v 27.499421 c 0,1.372052 1.11418,2.457044 2.4619,2.457044 h 8.66534 c 1.35745,0 2.47164,-1.084992 2.47164,-2.457044 v -26.896106 c 0,-9.667619 -1.80508,-16.021874 -5.90664,-21.227888 -5.25953,-6.728894 -11.99329,-10.611514 -20.59537,-10.611514 -7.93066,0 -12.15872,3.34255 -15.24827,5.69743 v -2.2381 c 0,-1.23096 -1.10932,-2.21864 -2.43758,-2.21864 h -8.30043 c -1.38178,0 -2.46191,1.07039 -2.46191,2.43272 v 55.062098 c 0,1.372052 1.08013,2.457044 2.46191,2.457044 h 8.64588 c 1.36718,0 2.45704,-1.084992 2.45704,-2.457044 m 513.13205,-23.8715 c 0,-10.387699 -7.44411,-18.259968 -17.40365,-18.259968 -9.88169,0 -17.34526,7.872269 -17.34526,18.259968 0,10.416891 7.46357,18.255102 17.34526,18.255102 9.95954,0 17.40365,-7.838211 17.40365,-18.255102 m 13.59402,0 c 0,17.797751 -13.34101,31.182558 -30.99767,31.182558 -17.63719,0 -30.94415,-13.384807 -30.94415,-31.182558 0,-17.807483 13.30696,-31.187418 30.94415,-31.187418 17.65666,0 30.99767,13.379935 30.99767,31.187418 m -447.28329,27.574095 c -7.13272,0 -13.02476,-2.481371 -17.14092,-7.113264 -3.29876,-3.687997 -4.93841,-8.932933 -4.93841,-16.089985 V -93.99166 h -8.53884 c -1.35259,0 -2.17484,-1.347724 -2.44731,-2.418116 0,0 -0.93903,-6.042874 -1.28448,-7.478174 -0.34563,-1.4353 0.34564,-2.43272 2.44732,-2.43272 h 9.82331 v -13.63781 c 0,-1.35258 1.08986,-2.45217 2.45704,-2.45217 h 8.68967 c 1.35259,0 2.47649,1.09959 2.47649,2.45217 v 13.63781 h 13.42374 c 2.10673,0 2.79762,0.99742 2.45217,2.43272 -0.34564,1.4353 -1.28447,7.478174 -1.28447,7.478174 -0.27753,1.070392 -1.09473,2.418116 -2.45217,2.418116 h -12.13927 v 26.307393 c 0,3.021432 0.21409,5.35684 1.48883,6.816471 1.36232,1.63965 4.29617,2.763565 7.31761,2.763565 0.71522,0 1.591,-0.05839 2.48137,-0.131562 1.35746,-0.102369 2.43272,0.817393 2.41326,2.135925 l -0.0923,8.193388 c -0.0155,1.323398 -1.11905,2.598141 -2.47651,2.661391 -0.89037,0.09731 -1.8294,0.121443 -2.67598,0.121443"
       id="path4020"
       style="fill:#0c1c2c;fill-opacity:1;fill-rule:nonzero;stroke:none;stroke-width:3.89235"
       sodipodi:nodetypes="csccccccccssccccsccccscsccccsssccsccccscsccccsssccssscccsssssssscscsssssscccsccccscsccccsssccsssssssccccsssscsccscscsccccscsccccccssscsssscsccscscsccccscsccccccsssccccsssccccssccccssccssccccssccsscscsscscsssssccccssssccssssccssssccssscccscsssssscscsssssssccsssccssscccscsccscsssscsccscscsccccc" />
    <ellipse
       style="fill:#0c1c2c;fill-opacity:1;stroke-width:1.24687;stroke-linecap:square;stroke-linejoin:bevel;paint-order:markers fill stroke"
       id="path1219"
       cx="-126.44914"
       cy="-5.7966104"
       rx="15.5"
       ry="16.101694" />
    <g
       id="g670">
      <circle
         style="fill:#3d4956;fill-opacity:1;stroke-width:1.22335;stroke-linecap:square;stroke-linejoin:bevel;paint-order:markers fill stroke"
         id="path1219-0"
         cx="-126.44914"
         cy="-53.415253"
         r="15.5" />
      <circle
         style="fill:#3d4956;fill-opacity:1;stroke-width:1.22335;stroke-linecap:square;stroke-linejoin:bevel;paint-order:markers fill stroke"
         id="path1219-05"
         cx="-126.44914"
         cy="39.330509"
         r="15.5" />
      <circle
         style="fill:#3d4956;fill-opacity:1;stroke-width:1.22335;stroke-linecap:square;stroke-linejoin:bevel;paint-order:markers fill stroke"
         id="path1219-2"
         cx="-85.364403"
         cy="-29.584743"
         r="15.5" />
      <circle
         style="fill:#3d4956;fill-opacity:1;stroke-width:1.22335;stroke-linecap:square;stroke-linejoin:bevel;paint-order:markers fill stroke"
         id="path1219-9"
         cx="-85.364403"
         cy="17.432205"
         r="15.5" />
      <circle
         style="fill:#3d4956;fill-opacity:1;stroke-width:1.22335;stroke-linecap:square;stroke-linejoin:bevel;paint-order:markers fill stroke"
         id="path1219-6"
         cx="-167.73727"
         cy="16.788137"
         r="15.5" />
      <circle
         style="fill:#3d4956;fill-opacity:1;stroke-width:1.22335;stroke-linecap:square;stroke-linejoin:bevel;paint-order:markers fill stroke"
         id="path1219-6-6"
         cx="-168.38135"
         cy="-28.940676"
         r="15.5" />
    </g>
    <g
       id="g1238">
      <circle
         style="fill:#616b76;fill-opacity:1;stroke-width:1.22335;stroke-linecap:square;stroke-linejoin:bevel;paint-order:markers fill stroke"
         id="path1219-6-6-6"
         cx="-203.16101"
         cy="-50.194912"
         r="15.5" />
      <circle
         style="fill:#616b76;fill-opacity:1;stroke-width:1.22335;stroke-linecap:square;stroke-linejoin:bevel;paint-order:markers fill stroke"
         id="path1219-6-6-6-8"
         cx="-172.24576"
         cy="-83.042374"
         r="15.5" />
      <circle
         style="fill:#616b76;fill-opacity:1;stroke-width:1.22335;stroke-linecap:square;stroke-linejoin:bevel;paint-order:markers fill stroke"
         id="path1219-6-6-6-1"
         cx="-126.44914"
         cy="-95.279663"
         r="15.5" />
      <circle
         style="fill:#616b76;fill-opacity:1;stroke-width:1.22335;stroke-linecap:square;stroke-linejoin:bevel;paint-order:markers fill stroke"
         id="path1219-6-6-6-7"
         cx="-83.364403"
         cy="-82.3983"
         r="15.5" />
      <circle
         style="fill:#616b76;fill-opacity:1;stroke-width:1.22335;stroke-linecap:square;stroke-linejoin:bevel;paint-order:markers fill stroke"
         id="path1219-6-6-6-6"
         cx="-48.584747"
         cy="-51.483047"
         r="15.5" />
      <circle
         style="fill:#616b76;fill-opacity:1;stroke-width:1.22335;stroke-linecap:square;stroke-linejoin:bevel;paint-order:markers fill stroke"
         id="path1219-6-6-6-9"
         cx="-38.279659"
         cy="-6.3983054"
         r="15.5" />
      <circle
         style="fill:#616b76;fill-opacity:1;stroke-width:1.22335;stroke-linecap:square;stroke-linejoin:bevel;paint-order:markers fill stroke"
         id="path1219-6-6-6-0"
         cx="-51.161015"
         cy="38.686443"
         r="15.5" />
      <circle
         style="fill:#616b76;fill-opacity:1;stroke-width:1.22335;stroke-linecap:square;stroke-linejoin:bevel;paint-order:markers fill stroke"
         id="path1219-6-6-6-07"
         cx="-83.364403"
         cy="70.245773"
         r="15.5" />
      <circle
         style="fill:#616b76;fill-opacity:1;stroke-width:1.22335;stroke-linecap:square;stroke-linejoin:bevel;paint-order:markers fill stroke"
         id="path1219-6-6-6-88"
         cx="-126.44914"
         cy="81.838989"
         r="15.5" />
      <circle
         style="fill:#616b76;fill-opacity:1;stroke-width:1.22335;stroke-linecap:square;stroke-linejoin:bevel;paint-order:markers fill stroke"
         id="path1219-6-6-6-70"
         cx="-172.24576"
         cy="68.957626"
         r="15.5" />
      <circle
         style="fill:#616b76;fill-opacity:1;stroke-width:1.22335;stroke-linecap:square;stroke-linejoin:bevel;paint-order:markers fill stroke"
         id="path1219-6-6-6-85"
         cx="-201.87288"
         cy="37.398304"
         r="15.5" />
      <circle
         style="fill:#616b76;fill-opacity:1;stroke-width:1.22335;stroke-linecap:square;stroke-linejoin:bevel;paint-order:markers fill stroke"
         id="path1219-6-6-6-2"
         cx="-216.04236"
         cy="-7.6864395"
         r="15.5" />
    </g>
    <g
       id="g1257">
      <circle
         style="fill:#858d95;fill-opacity:1;stroke-width:1.22335;stroke-linecap:square;stroke-linejoin:bevel;paint-order:markers fill stroke"
         id="path1219-6-6-6-37"
         cx="-56.957626"
         cy="105.66949"
         r="15.5" />
      <circle
         style="fill:#858d95;fill-opacity:1;stroke-width:1.22335;stroke-linecap:square;stroke-linejoin:bevel;paint-order:markers fill stroke"
         id="path1219-6-6-6-11"
         cx="-150.99152"
         cy="123.05933"
         r="15.5" />
      <circle
         style="fill:#858d95;fill-opacity:1;stroke-width:1.22335;stroke-linecap:square;stroke-linejoin:bevel;paint-order:markers fill stroke"
         id="path1219-6-6-6-68"
         cx="-196.07628"
         cy="103.73729"
         r="15.5" />
      <circle
         style="fill:#858d95;fill-opacity:1;stroke-width:1.22335;stroke-linecap:square;stroke-linejoin:bevel;paint-order:markers fill stroke"
         id="path1219-6-6-6-261"
         cx="-232.14406"
         cy="73.466095"
         r="15.5" />
      <circle
         style="fill:#858d95;fill-opacity:1;stroke-width:1.22335;stroke-linecap:square;stroke-linejoin:bevel;paint-order:markers fill stroke"
         id="path1219-6-6-6-883"
         cx="-252.75424"
         cy="30.31356"
         r="15.5" />
      <circle
         style="fill:#858d95;fill-opacity:1;stroke-width:1.22335;stroke-linecap:square;stroke-linejoin:bevel;paint-order:markers fill stroke"
         id="path1219-6-6-6-3"
         cx="-259.19492"
         cy="-19.279659"
         r="15.5" />
      <circle
         style="fill:#858d95;fill-opacity:1;stroke-width:1.22335;stroke-linecap:square;stroke-linejoin:bevel;paint-order:markers fill stroke"
         id="path1219-6-6-6-02"
         cx="-245.02542"
         cy="-63.720337"
         r="15.5" />
      <circle
         style="fill:#858d95;fill-opacity:1;stroke-width:1.22335;stroke-linecap:square;stroke-linejoin:bevel;paint-order:markers fill stroke"
         id="path1219-6-6-6-64"
         cx="-216.68643"
         cy="-104.29662"
         r="15.5" />
      <circle
         style="fill:#858d95;fill-opacity:1;stroke-width:1.22336;stroke-linecap:square;stroke-linejoin:bevel;paint-order:markers fill stroke"
         id="path1219-6-6-6-644"
         cx="-175.46609"
         cy="-129.41525"
         r="15.5" />
      <circle
         style="fill:#858d95;fill-opacity:1;stroke-width:1.22335;stroke-linecap:square;stroke-linejoin:bevel;paint-order:markers fill stroke"
         id="path1219-6-6-6-73"
         cx="-126.44914"
         cy="-137.78812"
         r="15.5" />
      <circle
         style="fill:#858d95;fill-opacity:1;stroke-width:1.22335;stroke-linecap:square;stroke-linejoin:bevel;paint-order:markers fill stroke"
         id="path1219-6-6-6-26"
         cx="-77.56781"
         cy="-128.12712"
         r="15.5" />
      <circle
         style="fill:#858d95;fill-opacity:1;stroke-width:1.22336;stroke-linecap:square;stroke-linejoin:bevel;paint-order:markers fill stroke"
         id="path1219-6-6-6-38"
         cx="-36.991531"
         cy="-104.29662"
         r="15.5" />
      <circle
         style="fill:#858d95;fill-opacity:1;stroke-width:1.22335;stroke-linecap:square;stroke-linejoin:bevel;paint-order:markers fill stroke"
         id="path1219-6-6-6-06"
         cx="-8.6525469"
         cy="-66.296608"
         r="15.5" />
      <circle
         style="fill:#858d95;fill-opacity:1;stroke-width:1.22335;stroke-linecap:square;stroke-linejoin:bevel;paint-order:markers fill stroke"
         id="path1219-6-6-6-63"
         cx="4.8728819"
         cy="-19.279661"
         r="15.5" />
      <circle
         style="fill:#858d95;fill-opacity:1;stroke-width:1.22335;stroke-linecap:square;stroke-linejoin:bevel;paint-order:markers fill stroke"
         id="path1219-6-6-6-077"
         cx="0.36440769"
         cy="29.025423"
         r="15.5" />
      <circle
         style="fill:#858d95;fill-opacity:1;stroke-width:1.22336;stroke-linecap:square;stroke-linejoin:bevel;paint-order:markers fill stroke"
         id="path1219-6-6-6-854"
         cx="-21.533895"
         cy="70.889832"
         r="15.5" />
      <circle
         style="fill:#858d95;fill-opacity:1;stroke-width:1.22335;stroke-linecap:square;stroke-linejoin:bevel;paint-order:markers fill stroke"
         id="path1219-6-6-6-80"
         cx="-103.33052"
         cy="124.34746"
         r="15.5" />
    </g>
    <g
       aria-label="Foundation"
       id="text498"
       style="font-size:124px;font-family:NayanikaSlab;-inkscape-font-specification:NayanikaSlab;letter-spacing:-5px;word-spacing:0px;fill:#101f2f;fill-opacity:1;stroke-width:1.23213;stroke-linecap:square;stroke-linejoin:bevel;paint-order:markers fill stroke">
      <path
         d="M 104.48094,111.42373 V 98.776 H 92.280937 V 57.483729 h 34.404003 v -12.648 H 92.280937 V -0.5802711 H 135.45694 V 11.819729 h 12.648 v -24.924 H 67.232937 v 12.5239999 h 12.4 V 98.775729 h -12.4 v 12.648001 z"
         id="path500"
         sodipodi:nodetypes="ccccccccccccccccccc"
         style="fill:#101f2f;fill-opacity:1" />
      <path
         d="m 136.51665,70.131729 c 0,25.916 17.236,43.276001 43.152,43.276001 25.792,0 43.028,-17.360001 43.028,-43.276001 0,-25.792 -17.236,-43.028 -43.028,-43.028 -25.916,0 -43.152,17.236 -43.152,43.028 z m 12.772,0 c 0,-18.104 12.152,-30.256 30.38,-30.256 18.104,0 30.256,12.152 30.256,30.256 0,18.228 -12.152,30.504001 -30.256,30.504001 -18.228,0 -30.38,-12.276001 -30.38,-30.504001 z"
         id="path502"
         style="fill:#101f2f;fill-opacity:1" />
      <path
         d="m 229.13648,43.347729 h 9.92 v 31.496 c 0,25.916001 11.036,40.548001 32.736,40.300001 15.376,-0.248 25.048,-7.812 29.76,-17.980001 v 14.260001 h 22.568 V 98.775729 h -9.92 v -67.952 h -22.568 v 12.524 h 9.92 v 32.86 c -0.372,13.888 -9.176,27.776001 -27.652,27.528001 -17.36,-0.124 -22.196,-13.144001 -22.196,-33.604001 v -39.308 h -22.568 z"
         id="path504"
         style="fill:#101f2f;fill-opacity:1" />
      <path
         d="m 337.92437,43.347729 h 9.92 v 55.428 h -9.92 v 12.648001 h 32.488 V 98.775729 h -9.92 v -32.612 c 0.248,-14.012 9.176,-27.9 26.04,-27.652 13.516,0.124 23.808,9.052 23.808,28.644 v 31.62 h -9.92 v 12.648001 h 32.488 V 98.775729 h -9.92 v -33.852 c 0,-22.444 -13.392,-38.068 -34.72,-37.82 -14.012,0.124 -22.816,7.192 -27.776,16.492 v -12.772 h -22.568 z"
         id="path506"
         style="fill:#101f2f;fill-opacity:1" />
      <path
         d="m 521.40432,-9.1042711 h -23.684 v 12.648 h 11.16 V 44.339729 c -6.572,-10.788 -17.856,-17.236 -32.364,-17.236 -23.932,0 -41.168,17.236 -41.168,43.028 0,25.916 17.236,43.276001 41.788,43.276001 14.88,0 25.544,-6.572 31.744,-16.864001 v 14.880001 h 22.444 V 98.775729 h -9.92 z m -12.648,79.2360001 c 0,18.228 -12.152,30.504001 -30.38,30.504001 -18.104,0 -30.256,-12.276001 -30.256,-30.504001 0,-18.104 12.152,-30.256 30.256,-30.256 18.228,0 30.38,12.152 30.38,30.256 z"
         id="path508"
         style="fill:#101f2f;fill-opacity:1" />
      <path
         d="m 629.36824,30.823729 h -22.444 v 15.004 c -6.076,-11.78 -17.112,-18.724 -32.364,-18.724 -23.932,0 -41.168,17.236 -41.168,43.028 0,25.916 17.236,43.276001 41.788,43.276001 15.5,0 26.04,-7.192 31.744,-18.352001 v 16.368001 h 22.444 V 98.775729 h -9.92 v -55.428 h 9.92 z m -22.568,39.308 c 0,18.228 -12.152,30.504001 -30.38,30.504001 -18.104,0 -30.256,-12.276001 -30.256,-30.504001 0,-18.104 12.152,-30.256 30.256,-30.256 18.228,0 30.38,12.152 30.38,30.256 z"
         id="path510"
         style="fill:#101f2f;fill-opacity:1" />
      <path
         d="m 659.36808,5.28 h -12.648 v 25.543729 h -9.92 v 12.524 h 9.92 v 30.628 c 0,23.064 3.844,38.812001 22.816,38.688001 9.3,-0.124 8.54998,-0.72581 8.54998,-0.72581 l -0.084,-11.45649 c 0,0 -3.87797,0.2783 -8.34197,-0.0937 -10.664,-0.372 -10.292,-12.524001 -10.292,-28.024001 v -29.016 l 18.69383,-0.483051 v -12.524 l -18.69383,0.483051 z"
         id="path512"
         sodipodi:nodetypes="ccccccsccccsccccc"
         style="fill:#101f2f;fill-opacity:1" />
      <path
         d="m 699.51996,2.1797289 c 0,6.076 3.968,9.9200001 9.796,9.9200001 5.952,0 9.92,-3.8440001 9.92,-9.9200001 0,-5.828 -3.968,-9.796 -9.92,-9.796 -5.828,0 -9.796,3.968 -9.796,9.796 z m -4.96,41.1680001 h 9.92 v 55.428 h -9.92 v 12.648001 h 32.488 V 98.775729 h -9.92 v -67.952 h -22.568 z"
         id="path514"
         style="fill:#101f2f;fill-opacity:1" />
      <path
         d="m 733.73581,70.131729 c 0,25.916 17.236,43.276001 43.152,43.276001 25.792,0 43.028,-17.360001 43.028,-43.276001 0,-25.792 -17.236,-43.028 -43.028,-43.028 -25.916,0 -43.152,17.236 -43.152,43.028 z m 12.772,0 c 0,-18.104 12.152,-30.256 30.38,-30.256 18.104,0 30.256,12.152 30.256,30.256 0,18.228 -12.152,30.504001 -30.256,30.504001 -18.228,0 -30.38,-12.276001 -30.38,-30.504001 z"
         id="path516"
         style="fill:#101f2f;fill-opacity:1" />
      <path
         d="m 823.71951,43.347729 h 9.92 v 55.428 h -9.92 v 12.648001 h 32.488 V 98.775729 h -9.92 v -32.612 c 0.248,-14.012 9.176,-27.9 26.04,-27.652 13.516,0.124 23.808,9.052 23.808,28.644 v 31.62 h -9.92 v 12.648001 h 32.488 V 98.775729 h -9.92 v -33.852 c 0,-22.444 -13.392,-38.068 -34.72,-37.82 -14.012,0.124 -22.816,7.192 -27.776,16.492 v -12.772 h -22.568 z"
         id="path518"
         style="fill:#101f2f;fill-opacity:1" />
    </g>
  </g>
</svg>
