<?xml version="1.0" encoding="UTF-8" standalone="no"?>
<!-- Created with Inkscape (http://www.inkscape.org/) -->

<svg
   width="32cm"
   height="44.49662cm"
   viewBox="0 0 319.99999 444.9662"
   version="1.1"
   id="svg2355"
   sodipodi:docname="antenna-white.svg"
   inkscape:version="1.2.2 (b0a8486541, 2022-12-01)"
   xmlns:inkscape="http://www.inkscape.org/namespaces/inkscape"
   xmlns:sodipodi="http://sodipodi.sourceforge.net/DTD/sodipodi-0.dtd"
   xmlns:xlink="http://www.w3.org/1999/xlink"
   xmlns="http://www.w3.org/2000/svg"
   xmlns:svg="http://www.w3.org/2000/svg">
  <sodipodi:namedview
     id="namedview2357"
     pagecolor="#a23653"
     bordercolor="#000000"
     borderopacity="0"
     inkscape:showpageshadow="false"
     inkscape:pageopacity="0"
     inkscape:pagecheckerboard="true"
     inkscape:deskcolor="#d1d1d1"
     inkscape:document-units="mm"
     showgrid="false"
     showguides="false"
     inkscape:zoom="0.31930129"
     inkscape:cx="678.04298"
     inkscape:cy="413.40265"
     inkscape:window-width="1366"
     inkscape:window-height="699"
     inkscape:window-x="0"
     inkscape:window-y="0"
     inkscape:window-maximized="1"
     inkscape:current-layer="g575">
    <sodipodi:guide
       position="220.1182,281.45233"
       orientation="1,0"
       id="guide4642"
       inkscape:locked="false" />
    <sodipodi:guide
       position="120.8881,323.39993"
       orientation="0,-1"
       id="guide9020"
       inkscape:locked="false" />
  </sodipodi:namedview>
  <defs
     id="defs2352">
    <linearGradient
       inkscape:collect="always"
       id="linearGradient9511">
      <stop
         style="stop-color:#4d4d4d;stop-opacity:0.2;"
         offset="0"
         id="stop9507" />
      <stop
         style="stop-color:#4d4d4d;stop-opacity:0;"
         offset="1"
         id="stop9509" />
    </linearGradient>
    <linearGradient
       inkscape:collect="always"
       id="linearGradient9501">
      <stop
         style="stop-color:#4d4d4d;stop-opacity:0.19942197;"
         offset="0"
         id="stop9497" />
      <stop
         style="stop-color:#4d4d4d;stop-opacity:0;"
         offset="0.89759034"
         id="stop9499" />
    </linearGradient>
    <linearGradient
       inkscape:collect="always"
       xlink:href="#linearGradient9501"
       id="linearGradient9503"
       x1="122.27047"
       y1="112.23951"
       x2="126.97012"
       y2="123.72188"
       gradientUnits="userSpaceOnUse"
       gradientTransform="rotate(180,138.22933,111.70076)" />
    <linearGradient
       inkscape:collect="always"
       xlink:href="#linearGradient9511"
       id="linearGradient9505"
       x1="150.84303"
       y1="139.21388"
       x2="156.43033"
       y2="152.92812"
       gradientUnits="userSpaceOnUse" />
    <clipPath
       clipPathUnits="userSpaceOnUse"
       id="clipPath383">
      <path
         d="M 0,82.853 H 160.809 V 0 H 0 Z"
         id="path381" />
    </clipPath>
  </defs>
  <g
     inkscape:label="Ebene 1"
     inkscape:groupmode="layer"
     id="layer1"
     transform="translate(12.88086,24.84961)">
    <g
       id="g575"
       transform="matrix(0.80968768,0,0,0.80968768,-2.4513859,-3.1416874)">
      <g
         id="g367"
         transform="matrix(1.4814815,0,0,1.4814815,6.2018937,12.908634)">
        <path
           style="color:#000000;fill:#ffffff;stroke-linejoin:bevel;-inkscape-stroke:none;paint-order:fill markers stroke"
           d="M 67.447266,-26.810241 52.707031,-22.466491 -12.880859,94.55304 6.3105469,105.30891 66.646484,-2.341492 223.38281,80.619446 155.10937,110.2718 109.18945,70.160462 92.449219,72.906555 40.232422,162.4925 l 13.884765,15.62891 96.996093,-42.12695 58.01563,50.67578 -104.67383,41.06445 -6.982424,10.17578 -0.449219,106.09859 22.000003,0.1289 0.40429,-98.6435 114.5918,-44.95508 3.21875,-18.52539 -63.78906,-55.7207 79.67578,-34.605485 0.76367,-19.8125 z m 37.300784,122.302734 28.02539,24.480477 -56.630862,24.59571 z"
           id="path4187-4-2-34-7-5"
           sodipodi:nodetypes="cccccccccccccccccccccccccccc" />
        <g
           id="g9515"
           transform="translate(0,-1.9606325)">
          <path
             id="path9360"
             style="fill:url(#linearGradient9503);fill-opacity:1;stroke:none;stroke-width:22;stroke-linecap:square;stroke-linejoin:bevel;paint-order:markers fill stroke"
             d="m 143.31358,101.88995 -22.49016,9.60046 11.95034,10.44357 22.336,-9.702 z"
             sodipodi:nodetypes="ccccc" />
          <path
             style="fill:url(#linearGradient9505);fill-opacity:1;stroke:none;stroke-width:22;stroke-linecap:square;stroke-linejoin:bevel;paint-order:markers fill stroke"
             d="m 151.11376,137.95498 22.335,-9.70148 13.68124,11.94724 -22.64487,9.43184 z"
             id="path9362"
             sodipodi:nodetypes="ccccc" />
        </g>
      </g>
      <g
         id="g377"
         transform="matrix(0.43569611,0,0,-0.43569611,213.50974,297.6375)">
        <g
           id="g379"
           clip-path="url(#clipPath383)">
          <g
             id="g385"
             transform="translate(5.4395,39.4279)">
            <path
               d="M 0,0 C 2.853,0 4.671,1.692 4.863,4.102 H 2.306 C 2.077,2.882 1.197,2.18 0.022,2.18 c -1.67,0 -2.749,1.397 -2.749,3.718 0,2.291 1.101,3.666 2.749,3.666 1.286,0 2.077,-0.828 2.284,-1.922 h 2.557 c -0.185,2.461 -2.106,4.08 -4.878,4.08 -3.326,0 -5.424,-2.402 -5.424,-5.869 C -5.439,2.417 -3.392,0 0,0 Z"
               style="fill:#00040c;fill-opacity:1;fill-rule:nonzero;stroke:none"
               id="path387" />
          </g>
          <g
             id="g389"
             transform="translate(12.7179,39.6496)">
            <path
               d="m 0,0 h 2.675 v 6.674 c 0,1.441 1.087,2.461 2.558,2.461 0.45,0 1.012,-0.081 1.241,-0.155 v 2.461 c -0.244,0.044 -0.665,0.074 -0.961,0.074 -1.3,0 -2.387,-0.739 -2.801,-2.055 H 2.594 v 1.892 H 0 Z"
               style="fill:#00040c;fill-opacity:1;fill-rule:nonzero;stroke:none"
               id="path391" />
          </g>
          <path
             d="m 21.186,39.65 h 2.675 v 11.352 h -2.675 z"
             style="fill:#00040c;fill-opacity:1;fill-rule:nonzero;stroke:none"
             id="path393" />
          <g
             id="g395"
             transform="translate(32.4925,51.0018)">
            <path
               d="M 0,0 H -2.239 V 2.72 H -4.915 V 0 h -1.611 v -2.069 h 1.611 v -6.312 c -0.017,-2.136 1.537,-3.185 3.548,-3.126 0.761,0.021 1.286,0.17 1.574,0.266 l -0.451,2.091 c -0.148,-0.037 -0.451,-0.103 -0.783,-0.103 -0.673,0 -1.212,0.236 -1.212,1.315 V -2.07 H 0 Z"
               style="fill:#00040c;fill-opacity:1;fill-rule:nonzero;stroke:none"
               id="path397" />
          </g>
          <path
             d="M 34.945,39.65 H 37.62 V 51.002 H 34.945 Z"
             style="fill:#00040c;fill-opacity:1;fill-rule:nonzero;stroke:none"
             id="path399" />
          <g
             id="g401"
             transform="translate(45.5341,39.4279)">
            <path
               d="M 0,0 C 2.853,0 4.671,1.692 4.863,4.102 H 2.306 C 2.077,2.882 1.197,2.18 0.022,2.18 c -1.67,0 -2.749,1.397 -2.749,3.718 0,2.291 1.101,3.666 2.749,3.666 1.286,0 2.077,-0.828 2.284,-1.922 h 2.557 c -0.185,2.461 -2.106,4.08 -4.878,4.08 C -3.341,11.722 -5.44,9.32 -5.44,5.853 -5.44,2.417 -3.392,0 0,0"
               style="fill:#00040c;fill-opacity:1;fill-rule:nonzero;stroke:none"
               id="path403" />
          </g>
          <g
             id="g405"
             transform="translate(56.7738,41.3864)">
            <path
               d="m 0,0 c -1.116,0 -1.914,0.51 -1.914,1.493 0,1.027 0.894,1.456 2.091,1.626 0.703,0.096 2.107,0.273 2.454,0.554 V 2.335 C 2.631,1.072 1.611,0 0,0 Z m -0.695,-1.966 c 1.781,0 2.846,0.835 3.333,1.789 h 0.089 v -1.56 h 2.572 v 7.598 c 0,3 -2.446,3.902 -4.612,3.902 -2.387,0 -4.22,-1.064 -4.811,-3.134 l 2.498,-0.354 c 0.266,0.776 1.02,1.441 2.328,1.441 1.242,0 1.922,-0.636 1.922,-1.752 V 5.92 C 2.624,5.151 1.818,5.114 -0.185,4.9 -2.387,4.664 -4.493,4.006 -4.493,1.449 c 0,-2.232 1.633,-3.415 3.798,-3.415 z"
               style="fill:#00040c;fill-opacity:1;fill-rule:nonzero;stroke:none"
               id="path407" />
          </g>
          <path
             d="M 67.659,54.786 H 64.984 V 39.65 h 2.675 z"
             style="fill:#00040c;fill-opacity:1;fill-rule:nonzero;stroke:none"
             id="path409" />
          <g
             id="g411"
             transform="translate(75.5358,41.7934)">
            <path
               d="m 0,0 -8.837,-8.378 h 3.89 l 8.811,8.352 -0.026,0.027 z"
               style="fill:#00040c;fill-opacity:1;fill-rule:nonzero;stroke:none"
               id="path413" />
          </g>
          <path
             d="m 21.258,21.976 h 2.675 v 11.352 h -2.675 z"
             style="fill:#00040c;fill-opacity:1;fill-rule:nonzero;stroke:none"
             id="path415" />
          <g
             id="g417"
             transform="translate(29.7006,25.0007)">
            <path
               d="m 0,0 c 0,1.641 0.99,2.587 2.402,2.587 1.382,0 2.21,-0.909 2.21,-2.424 V -6.652 H 7.287 V 0.576 C 7.295,3.296 5.743,4.848 3.4,4.848 1.7,4.848 0.532,4.035 0.015,2.772 H -0.118 V 4.7 H -2.675 V -6.652 H 0 Z"
               style="fill:#00040c;fill-opacity:1;fill-rule:nonzero;stroke:none"
               id="path419" />
          </g>
          <g
             id="g421"
             transform="translate(45.6778,29.7012)">
            <path
               d="m 0,0 h -2.358 v 0.894 c 0,0.887 0.37,1.382 1.368,1.382 0.421,0 0.776,-0.096 0.997,-0.162 l 0.54,2.069 C 0.2,4.302 -0.562,4.494 -1.486,4.494 -3.459,4.494 -5.033,3.363 -5.033,1.072 V 0 h -1.678 v -2.069 h 1.678 v -9.283 h 2.675 v 9.283 H 0 Z"
               style="fill:#00040c;fill-opacity:1;fill-rule:nonzero;stroke:none"
               id="path423" />
          </g>
          <g
             id="g425"
             transform="translate(47.9896,18.3491)">
            <path
               d="m 0,0 h 2.675 v 6.674 c 0,1.441 1.087,2.461 2.558,2.461 0.451,0 1.012,-0.081 1.241,-0.155 v 2.461 c -0.243,0.044 -0.665,0.074 -0.96,0.074 -1.301,0 -2.388,-0.739 -2.802,-2.055 H 2.594 v 1.892 H 0 Z"
               style="fill:#00040c;fill-opacity:1;fill-rule:nonzero;stroke:none"
               id="path427" />
          </g>
          <g
             id="g429"
             transform="translate(60.205,20.0859)">
            <path
               d="m 0,0 c -1.116,0 -1.914,0.51 -1.914,1.493 0,1.027 0.894,1.456 2.091,1.626 0.703,0.096 2.107,0.273 2.454,0.554 V 2.335 C 2.631,1.072 1.611,0 0,0 Z m -0.695,-1.966 c 1.781,0 2.846,0.835 3.333,1.789 h 0.089 v -1.56 h 2.572 v 7.598 c 0,3 -2.446,3.902 -4.612,3.902 -2.387,0 -4.22,-1.064 -4.811,-3.133 l 2.498,-0.355 c 0.266,0.776 1.02,1.441 2.328,1.441 1.242,0 1.922,-0.636 1.922,-1.752 V 5.92 C 2.624,5.151 1.818,5.115 -0.185,4.9 -2.387,4.664 -4.493,4.006 -4.493,1.449 c 0,-2.232 1.633,-3.415 3.798,-3.415 z"
               style="fill:#00040c;fill-opacity:1;fill-rule:nonzero;stroke:none"
               id="path431" />
          </g>
          <g
             id="g433"
             transform="translate(77.3869,26.7006)">
            <path
               d="m 0,0 c -0.369,1.922 -1.907,3.148 -4.567,3.148 -2.735,0 -4.598,-1.345 -4.59,-3.444 -0.008,-1.655 1.012,-2.749 3.193,-3.2 l 1.936,-0.406 c 1.042,-0.229 1.53,-0.651 1.53,-1.294 0,-0.776 -0.843,-1.36 -2.114,-1.36 -1.227,0 -2.025,0.533 -2.254,1.552 l -2.609,-0.251 c 0.333,-2.084 2.084,-3.318 4.87,-3.318 2.838,0 4.841,1.471 4.849,3.621 -0.008,1.619 -1.05,2.609 -3.193,3.075 l -1.936,0.414 c -1.153,0.258 -1.611,0.657 -1.604,1.315 -0.008,0.769 0.842,1.301 1.958,1.301 1.235,0 1.885,-0.673 2.092,-1.419 z"
               style="fill:#00040c;fill-opacity:1;fill-rule:nonzero;stroke:none"
               id="path435" />
          </g>
          <g
             id="g437"
             transform="translate(85.7221,29.7012)">
            <path
               d="M 0,0 H -2.239 V 2.72 H -4.915 V 0 h -1.611 v -2.069 h 1.611 v -6.312 c -0.016,-2.136 1.537,-3.185 3.548,-3.126 0.761,0.021 1.286,0.17 1.574,0.266 l -0.451,2.091 c -0.148,-0.037 -0.451,-0.103 -0.783,-0.103 -0.673,0 -1.212,0.236 -1.212,1.315 v 5.869 H 0 Z"
               style="fill:#00040c;fill-opacity:1;fill-rule:nonzero;stroke:none"
               id="path439" />
          </g>
          <g
             id="g441"
             transform="translate(88.1743,18.3491)">
            <path
               d="m 0,0 h 2.675 v 6.674 c 0,1.441 1.087,2.461 2.558,2.461 0.45,0 1.012,-0.081 1.241,-0.155 v 2.461 c -0.244,0.044 -0.665,0.074 -0.961,0.074 -1.3,0 -2.387,-0.739 -2.801,-2.055 H 2.594 v 1.892 H 0 Z"
               style="fill:#00040c;fill-opacity:1;fill-rule:nonzero;stroke:none"
               id="path443" />
          </g>
          <g
             id="g445"
             transform="translate(103.8781,23.1235)">
            <path
               d="m 0,0 c 0,-1.729 -1.234,-2.587 -2.417,-2.587 -1.286,0 -2.143,0.909 -2.143,2.35 V 6.578 H -7.236 V -0.65 c 0,-2.728 1.552,-4.272 3.784,-4.272 1.7,0 2.898,0.894 3.415,2.165 H 0.081 V -4.774 H 2.675 V 6.578 H 0 Z"
               style="fill:#00040c;fill-opacity:1;fill-rule:nonzero;stroke:none"
               id="path447" />
          </g>
          <g
             id="g449"
             transform="translate(114.4675,18.1274)">
            <path
               d="M 0,0 C 2.853,0 4.671,1.692 4.863,4.102 H 2.306 C 2.077,2.882 1.197,2.18 0.022,2.18 c -1.67,0 -2.749,1.397 -2.749,3.718 0,2.291 1.101,3.666 2.749,3.666 1.286,0 2.077,-0.828 2.284,-1.922 h 2.557 c -0.185,2.461 -2.106,4.08 -4.878,4.08 -3.326,0 -5.424,-2.402 -5.424,-5.869 C -5.439,2.417 -3.392,0 0,0 Z"
               style="fill:#00040c;fill-opacity:1;fill-rule:nonzero;stroke:none"
               id="path451" />
          </g>
          <g
             id="g453"
             transform="translate(127.4146,29.7012)">
            <path
               d="M 0,0 H -2.239 V 2.72 H -4.915 V 0 h -1.611 v -2.069 h 1.611 v -6.312 c -0.016,-2.136 1.537,-3.185 3.548,-3.126 0.761,0.021 1.286,0.17 1.574,0.266 l -0.451,2.091 c -0.148,-0.037 -0.451,-0.103 -0.783,-0.103 -0.673,0 -1.212,0.236 -1.212,1.315 v 5.869 H 0 Z"
               style="fill:#00040c;fill-opacity:1;fill-rule:nonzero;stroke:none"
               id="path455" />
          </g>
          <g
             id="g457"
             transform="translate(137.1022,23.1235)">
            <path
               d="m 0,0 c 0,-1.729 -1.234,-2.587 -2.417,-2.587 -1.286,0 -2.143,0.909 -2.143,2.35 V 6.578 H -7.235 V -0.65 c 0,-2.728 1.552,-4.272 3.784,-4.272 1.699,0 2.897,0.894 3.414,2.165 H 0.081 V -4.774 H 2.675 V 6.578 H 0 Z"
               style="fill:#00040c;fill-opacity:1;fill-rule:nonzero;stroke:none"
               id="path459" />
          </g>
          <g
             id="g461"
             transform="translate(142.7399,18.3491)">
            <path
               d="m 0,0 h 2.675 v 6.674 c 0,1.441 1.087,2.461 2.558,2.461 0.451,0 1.012,-0.081 1.241,-0.155 v 2.461 c -0.243,0.044 -0.665,0.074 -0.96,0.074 -1.301,0 -2.388,-0.739 -2.802,-2.055 H 2.594 v 1.892 H 0 Z"
               style="fill:#00040c;fill-opacity:1;fill-rule:nonzero;stroke:none"
               id="path463" />
          </g>
          <g
             id="g465"
             transform="translate(152.908,25.0968)">
            <path
               d="M 0,0 C 0.081,1.449 1.153,2.668 2.749,2.668 4.287,2.668 5.321,1.545 5.336,0 Z m 2.853,-6.969 c 2.646,0 4.464,1.293 4.937,3.266 L 5.292,-3.422 C 4.93,-4.383 4.043,-4.885 2.89,-4.885 c -1.73,0 -2.875,1.138 -2.897,3.082 h 7.908 v 0.82 c 0,3.984 -2.395,5.735 -5.189,5.735 -3.251,0 -5.373,-2.387 -5.373,-5.89 0,-3.562 2.092,-5.831 5.514,-5.831 z"
               style="fill:#00040c;fill-opacity:1;fill-rule:nonzero;stroke:none"
               id="path467" />
          </g>
          <path
             d="M 5.807,15.365 H 3.132 V 0.229 h 2.675 z"
             style="fill:#00040c;fill-opacity:1;fill-rule:nonzero;stroke:none"
             id="path469" />
          <g
             id="g471"
             transform="translate(12.7302,1.9659)">
            <path
               d="m 0,0 c -1.116,0 -1.914,0.51 -1.914,1.493 0,1.027 0.894,1.456 2.091,1.626 0.703,0.096 2.107,0.273 2.454,0.554 V 2.336 C 2.631,1.072 1.611,0 0,0 Z m -0.695,-1.966 c 1.781,0 2.846,0.835 3.333,1.789 h 0.089 v -1.56 h 2.572 v 7.598 c 0,3 -2.446,3.902 -4.612,3.902 -2.387,0 -4.22,-1.064 -4.811,-3.134 l 2.498,-0.354 c 0.266,0.776 1.02,1.441 2.328,1.441 1.242,0 1.922,-0.636 1.922,-1.752 V 5.92 C 2.624,5.151 1.818,5.114 -0.185,4.9 -2.387,4.664 -4.493,4.006 -4.493,1.449 c 0,-2.232 1.633,-3.415 3.798,-3.415 z"
               style="fill:#00040c;fill-opacity:1;fill-rule:nonzero;stroke:none"
               id="path473" />
          </g>
          <g
             id="g475"
             transform="translate(23.6818,5.9052)">
            <path
               d="M 0,0 C 0,2.202 0.946,3.629 2.668,3.629 4.449,3.629 5.366,2.114 5.366,0 5.366,-2.129 4.434,-3.681 2.668,-3.681 0.961,-3.681 0,-2.202 0,0 m -2.624,-5.676 h 2.631 v 1.788 h 0.156 c 0.421,-0.827 1.3,-1.988 3.252,-1.988 2.675,0 4.678,2.121 4.678,5.861 0,3.784 -2.062,5.839 -4.686,5.839 -2.003,0 -2.838,-1.205 -3.244,-2.025 H 0.052 V 9.46 h -2.675 z"
               style="fill:#00040c;fill-opacity:1;fill-rule:nonzero;stroke:none"
               id="path477" />
          </g>
          <g
             id="g479"
             transform="translate(102.1756,67.512)">
            <path
               d="M 0,0 0.36,-8.139 -12.086,-2.89 Z M 6.583,15.341 -12.485,10.447 -12.158,9.179 6.29,13.913 14.156,-13.951 1.695,-8.698 1.273,0.847 0.47,1.456 l -14.804,-3.538 -0.099,-1.24 14.859,-6.261 0.592,-13.477 -16.393,7.613 -0.725,-0.115 -8.171,-7.707 c 0.615,-0.029 1.266,-0.013 1.892,-0.013 l 6.854,6.463 16.969,-7.884 0.93,0.625 -0.614,13.935 13.144,-5.541 0.885,0.779 -8.415,29.792 z"
               style="fill:#00040c;fill-opacity:1;fill-rule:nonzero;stroke:none"
               id="path481" />
          </g>
        </g>
      </g>
    </g>
  </g>
</svg>
