<?xml version="1.0" encoding="UTF-8" standalone="no"?>
<!-- Created with Inkscape (http://www.inkscape.org/) -->

<svg
   width="155.30666"
   height="43.448643"
   viewBox="0 0 41.091553 11.495787"
   version="1.1"
   id="svg382"
   inkscape:version="1.2.1 (9c6d41e4, 2022-07-14)"
   sodipodi:docname="Omidyar_Network_logo.svg"
   xmlns:inkscape="http://www.inkscape.org/namespaces/inkscape"
   xmlns:sodipodi="http://sodipodi.sourceforge.net/DTD/sodipodi-0.dtd"
   xmlns="http://www.w3.org/2000/svg"
   xmlns:svg="http://www.w3.org/2000/svg"
   xmlns:rdf="http://www.w3.org/1999/02/22-rdf-syntax-ns#"
   xmlns:cc="http://creativecommons.org/ns#"
   xmlns:dc="http://purl.org/dc/elements/1.1/">
  <defs
     id="defs376" />
  <sodipodi:namedview
     id="base"
     pagecolor="#ffffff"
     bordercolor="#666666"
     borderopacity="1.0"
     inkscape:pageopacity="0.0"
     inkscape:pageshadow="2"
     inkscape:zoom="5.1639768"
     inkscape:cx="77.072383"
     inkscape:cy="21.204588"
     inkscape:document-units="mm"
     inkscape:current-layer="g416"
     showgrid="false"
     fit-margin-top="0"
     fit-margin-left="0"
     fit-margin-right="0"
     fit-margin-bottom="0"
     units="px"
     inkscape:window-width="2560"
     inkscape:window-height="1395"
     inkscape:window-x="0"
     inkscape:window-y="23"
     inkscape:window-maximized="1"
     inkscape:showpageshadow="2"
     inkscape:pagecheckerboard="0"
     inkscape:deskcolor="#d1d1d1" />
  <metadata
     id="metadata379">
    <rdf:RDF>
      <cc:Work
         rdf:about="">
        <dc:format>image/svg+xml</dc:format>
        <dc:type
           rdf:resource="http://purl.org/dc/dcmitype/StillImage" />
      </cc:Work>
    </rdf:RDF>
  </metadata>
  <g
     inkscape:label="Layer 1"
     inkscape:groupmode="layer"
     id="layer1"
     transform="translate(-66.521039,-155.80434)">
    <g
       id="g416"
       transform="translate(0.13229271,-0.13228966)">
      <g
         transform="matrix(0.35277777,0,0,-0.35277777,84.623369,158.86645)"
         id="g28"
         style="fill:#000000">
        <path
           inkscape:connector-curvature="0"
           id="path30"
           style="fill:#000000;fill-opacity:1;fill-rule:nonzero;stroke:none"
           d="m 0,0 c 0,-0.684 -0.534,-1.218 -1.189,-1.218 -0.665,0 -1.191,0.534 -1.191,1.218 v 7.12 c 0,0.654 0.526,1.185 1.191,1.185 C -0.534,8.305 0,7.774 0,7.12 Z" />
      </g>
      <g
         transform="matrix(0.35277777,0,0,-0.35277777,84.203987,161.39611)"
         id="g32"
         style="fill:#000000">
        <path
           inkscape:connector-curvature="0"
           id="path34"
           style="fill:#000000;fill-opacity:1;fill-rule:nonzero;stroke:none"
           d="m 0,0 c 1.828,0 3.658,0.697 5.053,2.093 2.805,2.785 2.806,7.311 0,10.106 -0.465,0.464 -1.22,0.464 -1.682,0 -0.464,-0.469 -0.464,-1.223 0,-1.689 1.856,-1.859 1.856,-4.871 0,-6.732 C 2.439,2.85 1.22,2.383 0,2.383 c -1.218,0 -2.437,0.467 -3.37,1.395 -1.86,1.861 -1.86,4.873 0,6.732 0.47,0.466 0.47,1.22 0,1.689 -0.463,0.464 -1.22,0.464 -1.684,0 -2.792,-2.795 -2.792,-7.321 0,-10.106 C -3.662,0.697 -1.833,0 0,0" />
      </g>
      <g
         transform="matrix(0.35277777,0,0,-0.35277777,91.654759,156.4604)"
         id="g36"
         style="fill:#000000">
        <path
           inkscape:connector-curvature="0"
           id="path38"
           style="fill:#000000;fill-opacity:1;fill-rule:nonzero;stroke:none"
           d="M 0,0 C -0.66,0 -1.189,-0.534 -1.189,-1.191 V -9.262 L -8.68,-0.423 C -8.903,-0.165 -9.226,0 -9.595,0 c -0.658,0 -1.189,-0.534 -1.189,-1.191 V -12.5 c 0,-0.662 0.531,-1.194 1.189,-1.194 0.661,0 1.19,0.532 1.19,1.194 v 8.061 l 7.493,-8.837 c 0.221,-0.262 0.55,-0.418 0.912,-0.418 0.656,0 1.19,0.532 1.19,1.194 V -1.191 C 1.19,-0.534 0.656,0 0,0" />
      </g>
      <g
         transform="matrix(0.35277777,0,0,-0.35277777,66.388746,166.17794)"
         id="g40"
         style="fill:#000000">
        <path
           inkscape:connector-curvature="0"
           id="path42"
           style="fill:#000000;fill-opacity:1;fill-rule:nonzero;stroke:none"
           d="m 0,0 v 0.02 c 0,1.945 1.501,3.576 3.625,3.576 2.124,0 3.606,-1.611 3.606,-3.557 V 0.02 C 7.231,-1.927 5.73,-3.556 3.606,-3.556 1.481,-3.556 0,-1.947 0,0 m 5.956,0 v 0.02 c 0,1.342 -0.977,2.459 -2.35,2.459 -1.374,0 -2.333,-1.097 -2.333,-2.44 V 0.02 c 0,-1.344 0.978,-2.461 2.352,-2.461 1.373,0 2.331,1.097 2.331,2.441 m 3.678,-3.439 h 1.195 V 1.5 l 2.165,-3.239 h 0.04 l 2.182,3.26 v -4.96 h 1.216 v 6.916 h -1.295 l -2.103,-3.27 -2.105,3.27 H 9.634 Z m 9.583,0 h 1.215 v 6.917 h -1.215 z m 4,6.916 h 2.58 c 2.172,0 3.674,-1.492 3.674,-3.438 V 0.02 c 0,-1.947 -1.502,-3.459 -3.674,-3.459 h -2.58 z m 2.58,-5.808 c 1.452,0 2.4,0.978 2.4,2.331 v 0.02 c 0,1.353 -0.948,2.35 -2.4,2.35 h -1.363 v -4.701 z m 7.528,-1.108 h 1.225 v 2.757 l 2.746,4.159 H 35.903 L 33.948,0.415 32.01,3.477 h -1.431 l 2.746,-4.189 z m 7.197,6.965 h 1.127 l 3.043,-6.965 h -1.285 l -0.701,1.67 h -3.271 l -0.711,-1.67 h -1.245 z m 1.739,-4.218 -1.195,2.766 -1.187,-2.766 z m 4.47,4.169 h 3.081 c 0.871,0 1.552,-0.257 1.998,-0.692 0.365,-0.375 0.573,-0.888 0.573,-1.491 v -0.02 c 0,-1.135 -0.682,-1.817 -1.65,-2.095 L 52.6,-3.439 h -1.432 l -1.699,2.411 h -0.02 -1.502 V -3.439 H 46.731 Z M 49.725,0.05 c 0.871,0 1.423,0.453 1.423,1.155 v 0.018 c 0,0.742 -0.534,1.147 -1.433,1.147 H 47.947 V 0.05 Z m 8.446,-3.489 h 1.196 v 4.92 l 3.813,-4.92 h 1.018 v 6.916 h -1.196 v -4.782 l -3.706,4.782 h -1.125 z m 8.584,0 h 5.176 v 1.087 h -3.962 v 1.857 h 3.468 V 0.592 H 67.969 V 2.39 h 3.913 v 1.087 h -5.127 z m 9.268,0 h 1.225 V 2.35 h 2.194 V 3.477 H 73.828 V 2.35 h 2.195 z m 7.407,-0.05 h 1.046 l 1.7,4.97 1.7,-4.97 h 1.046 l 2.411,6.966 h -1.275 l -1.648,-5.128 -1.7,5.149 h -1.027 l -1.7,-5.149 -1.65,5.128 H 81.019 Z M 92.635,0 v 0.02 c 0,1.945 1.502,3.576 3.625,3.576 2.124,0 3.607,-1.611 3.607,-3.557 V 0.02 c 0,-1.947 -1.502,-3.576 -3.626,-3.576 -2.125,0 -3.606,1.609 -3.606,3.556 m 5.956,0 v 0.02 c 0,1.342 -0.978,2.459 -2.35,2.459 -1.374,0 -2.331,-1.097 -2.331,-2.44 V 0.02 c 0,-1.344 0.977,-2.461 2.35,-2.461 1.373,0 2.331,1.097 2.331,2.441 m 3.481,3.477 h 3.081 c 0.87,0 1.552,-0.257 1.997,-0.692 0.364,-0.375 0.572,-0.888 0.572,-1.491 v -0.02 c 0,-1.135 -0.681,-1.817 -1.649,-2.095 l 1.867,-2.618 h -1.432 l -1.7,2.411 h -0.02 -1.501 v -2.411 h -1.215 z m 2.992,-3.427 c 0.87,0 1.422,0.453 1.422,1.155 v 0.018 c 0,0.742 -0.531,1.147 -1.431,1.147 h -1.768 V 0.05 Z m 5.291,-3.489 h 1.215 v 2.006 l 1.077,1.107 2.361,-3.113 h 1.472 l -3.003,3.942 2.874,2.974 H 114.86 L 111.57,0 v 3.477 h -1.215 z" />
      </g>
    </g>
  </g>
</svg>
