<?xml version="1.0" encoding="UTF-8" standalone="no"?>
<!-- Created with Inkscape (http://www.inkscape.org/) -->

<svg
   version="1.1"
   id="svg823"
   width="491.39258"
   height="120"
   viewBox="0 0 491.39258 120"
   sodipodi:docname="logo-isocfoundation.svg"
   inkscape:version="1.2.2 (b0a8486541, 2022-12-01)"
   xmlns:inkscape="http://www.inkscape.org/namespaces/inkscape"
   xmlns:sodipodi="http://sodipodi.sourceforge.net/DTD/sodipodi-0.dtd"
   xmlns="http://www.w3.org/2000/svg"
   xmlns:svg="http://www.w3.org/2000/svg">
  <defs
     id="defs827" />
  <sodipodi:namedview
     id="namedview825"
     pagecolor="#ffffff"
     bordercolor="#000000"
     borderopacity="0.25"
     inkscape:showpageshadow="2"
     inkscape:pageopacity="0.0"
     inkscape:pagecheckerboard="0"
     inkscape:deskcolor="#d1d1d1"
     showgrid="false"
     inkscape:zoom="0.38815789"
     inkscape:cx="492.0678"
     inkscape:cy="329.76272"
     inkscape:window-width="1366"
     inkscape:window-height="699"
     inkscape:window-x="0"
     inkscape:window-y="0"
     inkscape:window-maximized="1"
     inkscape:current-layer="g829"
     showguides="true">
    <sodipodi:guide
       position="952.8223,-5.9626272"
       orientation="1,0"
       id="guide662"
       inkscape:locked="false" />
  </sodipodi:namedview>
  <g
     inkscape:groupmode="layer"
     inkscape:label="Image"
     id="g829"
     transform="translate(274.69492,153.28812)">
    <path
       d="m 216.01421,-132.55198 h -3.86598 c -0.56963,0 -1.18708,0.39834 -1.40816,0.90226 l -6.18636,14.23501 -6.7819,-14.25294 c -0.22706,-0.48599 -0.88235,-0.88433 -1.43605,-0.88433 l -4.07313,0.006 c -0.51188,0 -0.74889,0.37644 -0.52781,0.83852 l 9.95874,20.83169 -5.21241,11.872798 c -0.23502,0.503911 0.0398,0.918196 0.59155,0.918196 h 3.92176 c 0.55968,0 1.19106,-0.414285 1.4221,-0.918196 l 14.19519,-32.646648 c 0.23701,-0.50391 -0.0339,-0.90226 -0.59754,-0.90226 m -50.04264,9.28306 c -0.87636,-2.80837 -3.53136,-4.84991 -6.35168,-4.84991 -3.0872,0 -5.82586,1.96187 -6.81376,4.84991 z m 5.23232,2.97367 c 0,0.11552 0,0.38043 -0.0159,0.69512 -0.018,0.38043 -0.50591,0.69114 -1.06758,0.69114 h -17.24454 c 0.4342,3.64689 3.55725,6.42936 7.28182,6.42936 2.84621,0 4.64475,-1.14725 6.1306,-2.65102 0.38839,-0.40631 1.00384,-0.43619 1.40418,-0.0537 l 2.20686,2.10726 c 0.41228,0.38242 0.45611,1.05364 0.0876,1.45 -1.58742,1.71489 -4.64276,4.10698 -9.88305,4.10698 -7.22804,0 -12.68344,-5.49125 -12.68344,-12.77507 0,-7.4073 5.04111,-12.76908 11.96442,-12.76908 6.75004,0 11.81903,5.4773 11.81903,12.76908 m -223.619098,-4.47485 c -0.898277,-2.7984 -3.531374,-4.8519 -6.367617,-4.8519 -3.087212,0 -5.795986,1.97382 -6.797837,4.8519 z m 5.226341,2.98762 c 0,0.10756 -0.0096,0.38839 -0.0096,0.69512 -0.04018,0.38043 -0.524227,0.67919 -1.075939,0.67919 h -17.240573 c 0.424243,3.64091 3.559253,6.43931 7.28183,6.43931 2.852184,0 4.650735,-1.14127 6.130594,-2.66097 0.374453,-0.40233 1.003848,-0.44018 1.404187,-0.0497 l 2.210837,2.10727 c 0.398347,0.38839 0.446155,1.04965 0.06373,1.45596 -1.559534,1.7149 -4.618857,4.10699 -9.861139,4.10699 -7.220078,0 -12.687427,-5.48926 -12.687427,-12.77308 0,-7.4073 5.043106,-12.78701 11.972395,-12.78701 6.734098,0 11.811058,5.49124 11.811058,12.78701 m 187.940934,-22.25846 c -1.96785,0 -3.50548,1.56352 -3.50548,3.55726 0,1.97581 1.53763,3.52937 3.50548,3.52937 2.00768,0 3.56522,-1.55356 3.56522,-3.52937 0,-1.94992 -1.60335,-3.55726 -3.56522,-3.55726 m -154.515429,9.50929 c -3.238579,0 -5.061024,1.33048 -6.279974,2.2945 v -0.91621 c 0,-0.50392 -0.448143,-0.90824 -1.015791,-0.90824 h -3.389956 c -0.563664,0 -1.007823,0.43819 -1.007823,0.99588 v 22.5406 c 0,0.56167 0.444159,1.00583 1.007823,1.00583 h 3.547305 c 0.565656,0 1.005835,-0.44416 1.005835,-1.00583 v -15.57547 c 1.246829,-1.47588 2.830272,-3.17085 5.945362,-3.17085 1.80253,0 3.027451,0.81263 4.0990176,2.19888 0.7050768,0.90824 1.330488,2.08536 1.330488,5.29008 v 11.25736 c 0,0.56167 0.4481376,1.00583 0.9978576,1.00583 h 3.5652336 c 0.5656512,0 0.9958656,-0.44416 0.9958656,-1.00583 v -11.01038 c 0,-3.9576 -0.525816,-6.74007 -2.2028688,-8.88319 -2.1630336,-2.76056 -5.0630206,-4.11296 -8.5983746,-4.11296 m 33.01321,9.76155 c -0.890309,-2.7984 -3.531365,-4.8519 -6.363634,-4.8519 -3.0792382,0 -5.8019566,1.97383 -6.8077918,4.8519 z m 5.236301,2.98762 c 0,0.10755 -0.01594,0.38839 -0.03394,0.69512 -0.02597,0.38042 -0.495941,0.67919 -1.061597,0.67919 H 6.1500096 c 0.4222512,3.64091 3.5552736,6.43931 7.2639024,6.43931 2.854171,0 4.652722,-1.14127 6.138562,-2.66097 0.3864,-0.40233 1.003843,-0.44017 1.414142,-0.0497 l 2.196898,2.10727 c 0.414283,0.38839 0.448147,1.04965 0.09561,1.45596 -1.587427,1.7149 -4.652722,4.10698 -9.896995,4.10698 -7.2121154,0 -12.65954418,-5.48925 -12.65954418,-12.77307 0,-7.40731 5.03314558,-12.78701 11.96044318,-12.78701 6.736085,0 11.82301,5.49124 11.82301,12.78701 M 142.56245,-132.5522 h -3.54929 c -0.57163,0 -1.01977,0.43619 -1.01977,0.98392 v 22.53662 c 0,0.55769 0.44814,0.99787 1.01977,0.99787 h 3.54929 c 0.55171,0 0.99787,-0.44018 0.99787,-0.99787 v -22.53662 c 0,-0.54773 -0.44616,-0.98392 -0.99787,-0.98392 m 45.64487,0.92816 c -0.10357,-0.37245 -0.42624,-0.92816 -1.10941,-0.92816 l -4.33603,0.001 v -5.58287 c 0,-0.55172 -0.46009,-1.00185 -1.01579,-1.00185 h -3.55527 c -0.55769,0 -1.00583,0.45013 -1.00583,1.00185 v 5.58286 h -4.02134 c -0.86243,0 -1.14326,0.4103 -1.00384,0.99787 0.14149,0.58757 0.52582,3.05932 0.52582,3.05932 0.11345,0.44018 0.45014,0.99189 1.00384,0.99189 h 3.49552 v 10.50647 c 0,2.92986 0.66923,5.07497 2.02162,6.58471 1.68502,1.89814 4.09703,2.91194 7.01693,2.91194 0.34657,0 0.73097,-0.008 1.09546,-0.0478 0.5557,-0.0279 1.00782,-0.54773 1.01379,-1.08948 l 0.0379,-3.3541 c 0.008,-0.53977 -0.43221,-0.91621 -0.9879,-0.87637 -0.3645,0.0319 -0.72301,0.0558 -1.01579,0.0558 -1.23688,0 -2.4379,-0.4601 -2.9956,-1.13132 -0.52183,-0.59951 -0.60947,-1.55555 -0.60947,-2.79043 v -10.76938 l 5.56893,-0.018 c 0.51387,0 1.11338,-0.20714 0.92816,-0.93015 l -1.05164,-3.17484 z m -147.283308,2.60988 c 0.567648,0 0.999859,-0.44018 0.999859,-0.9899 v -3.06131 c 0,-0.55769 -0.432211,-0.99588 -0.999859,-0.99588 H 36.28921 v -5.58286 c 0,-0.55371 -0.46009,-1.00385 -1.015786,-1.00385 H 31.71815 c -0.55968,0 -1.007817,0.45014 -1.007817,1.00385 v 5.58286 h -4.019347 c -0.862431,0 -1.145256,0.40831 -1.003839,0.99588 0.141485,0.58756 0.525816,3.06131 0.525816,3.06131 0.113611,0.43818 0.450139,0.9899 1.003843,0.9899 h 3.493527 v 10.50646 c 0,2.92986 0.671217,5.07697 2.023608,6.58671 1.683029,1.89614 4.097025,2.91193 7.014936,2.91193 0.348557,0 0.732965,-0.01 1.097453,-0.0497 0.553704,-0.026 1.007827,-0.54773 1.013798,-1.08948 l 0.03778,-3.35411 c 0.008,-0.53976 -0.432206,-0.9162 -0.987902,-0.87437 -0.364493,0.0298 -0.723005,0.0539 -1.015791,0.0539 -1.23887,0 -2.439888,-0.46009 -2.995589,-1.13131 -0.521841,-0.59752 -0.609475,-1.55356 -0.609475,-2.79044 v -10.76938 h 4.634799 z m 92.916668,14.86172 -2.66695,-1.92004 c -0.44217,-0.32067 -1.04368,-0.22507 -1.43207,0.18921 -1.76469,2.06146 -3.85403,3.06729 -6.17641,3.06729 -4.4157,0 -7.52283,-3.0892 -7.52283,-7.47901 0,-4.25437 3.10713,-7.46706 7.23204,-7.46706 2.75458,0 4.71247,1.54162 5.89757,2.96572 0.35851,0.42225 0.95802,0.50988 1.36633,0.15535 l 2.59724,-2.18893 c 0.42823,-0.35851 0.51785,-1.0138 0.16531,-1.43804 -2.52553,-3.0892 -6.21226,-4.79613 -10.02645,-4.79613 -7.29378,0 -12.78502,5.47731 -12.78502,12.76909 0,7.28382 5.6227,12.76312 13.07581,12.76312 4.11495,0 8.28169,-1.99175 10.5483,-5.19647 0.32864,-0.45212 0.17128,-1.10343 -0.27287,-1.4241 m -59.417761,-10.9805 c -1.41215,-0.95205 -3.28439,-1.67904 -4.951483,-2.38611 -3.21468,-1.35837 -6.056904,-2.47176 -6.056904,-5.0212 0,-2.65699 2.388106,-4.08905 4.915637,-4.08905 1.746758,0 3.495513,0.59354 5.17655,1.66908 0.432207,0.27486 0.967987,0.27486 1.3026,-0.12954 l 2.023613,-2.51159 c 0.324653,-0.39636 0.266894,-0.99588 -0.143405,-1.30659 -2.653008,-2.03955 -5.509171,-2.97567 -8.556542,-2.97567 -5.752167,0 -10.261483,3.95959 -10.261483,9.03456 0,3.08721 1.448001,5.5988 4.31412,7.49694 1.412155,0.9182 3.053352,1.60336 4.644758,2.24868 3.336173,1.3763 6.242136,2.68488 6.242136,5.87765 0,2.61516 -2.06544,4.33802 -5.128752,4.33802 -3.232603,0 -5.582861,-1.67904 -7.36548,-3.44373 -0.370459,-0.35453 -0.892301,-0.41229 -1.270733,-0.0539 l -2.390097,2.37417 c -0.374448,0.35453 -0.408308,0.97396 -0.06167,1.36036 3.045384,3.39991 7.034851,5.11879 11.33304,5.11879 6.074832,0 10.488542,-4.12093 10.488542,-9.82529 0,-3.22862 -1.320528,-5.83582 -4.254369,-7.77578 m -116.485018,15.614 h 3.541335 c 0.555691,0 1.003833,-0.44416 1.003833,-1.00583 v -15.02574 c 1.316549,-2.19291 3.788309,-3.72059 6.056904,-3.72059 0.40632,0 0.820603,0.0298 1.228911,0.0816 0.539764,0.0797 0.967992,-0.21311 0.967992,-0.77677 v -3.48955 c 0,-0.5557 -0.360509,-1.05562 -0.818612,-1.08351 -0.300753,-0.0111 -0.593544,-0.0299 -0.828571,-0.0299 -3.067286,0 -5.393645,1.22892 -6.752016,2.60521 v -1.10144 c 0,-0.55768 -0.454118,-0.99587 -1.007827,-0.99587 h -3.391949 c -0.565651,0 -1.013793,0.43819 -1.013793,0.99587 v 22.54061 c 0,0.56167 0.448142,1.00583 1.013793,1.00583 m -91.463009,0 h 5.32394 3.53336 5.32194 c 0.56367,0 1.00783,-0.44416 1.00783,-1.00583 v -3.06729 c 0,-0.56168 -0.44416,-1.0138 -1.00783,-1.0138 h -4.30814 v -23.51855 h 4.06316 c 0.54375,0 0.99388,-0.45212 0.99388,-1.00782 v -3.07327 c 0,-0.56565 -0.45013,-1.00583 -0.99388,-1.00583 h -5.07696 -3.53336 -5.13472 c -0.56566,0 -1.02576,0.44018 -1.02576,1.00583 v 3.07327 c 0,0.5557 0.4601,1.00782 1.02576,1.00782 h 4.13885 v 23.51855 h -4.32807 c -0.55371,0 -1.00583,0.45213 -1.00583,1.0138 v 3.06729 c 0,0.56167 0.45212,1.00583 1.00583,1.00583 m 25.24938,-1.00583 v -15.57546 c 1.23289,-1.47589 2.83624,-3.17086 5.95333,-3.17086 1.81647,0 3.063304,0.78076 4.081089,2.19889 0.772795,1.05164 1.340447,2.08536 1.340447,5.29008 v 11.25735 c 0,0.56167 0.456108,1.00583 1.00782,1.00583 h 3.547305 c 0.555696,0 1.011806,-0.44416 1.011806,-1.00583 v -11.01037 c 0,-3.95761 -0.73894,-6.55883 -2.41798,-8.69 -2.15308,-2.75458 -4.909658,-4.344 -8.431067,-4.344 -3.24655,0 -4.97738,1.36833 -6.24214,2.33234 v -0.91621 c 0,-0.50391 -0.45411,-0.90824 -0.99786,-0.90824 h -3.39792 c -0.56566,0 -1.00783,0.43819 -1.00783,0.99588 v 22.5406 c 0,0.56167 0.44217,1.00583 1.00783,1.00583 h 3.53934 c 0.55967,0 1.00583,-0.44416 1.00583,-1.00583 m 210.05927,-9.77222 c 0,-4.25238 -3.047371,-7.47502 -7.124476,-7.47502 -4.045239,0 -7.100578,3.22264 -7.100578,7.47502 0,4.26433 3.055339,7.47304 7.100578,7.47304 4.077105,0 7.124476,-3.20871 7.124476,-7.47304 m 5.56494,0 c 0,7.28581 -5.46136,12.76511 -12.689416,12.76511 -7.220083,0 -12.667512,-5.4793 -12.667512,-12.76511 0,-7.28979 5.447429,-12.76709 12.667512,-12.76709 7.228056,0 12.689416,5.4773 12.689416,12.76709 M -75.754411,-109.009 c -2.919898,0 -5.331902,-1.0158 -7.016923,-2.91194 -1.350403,-1.50974 -2.021621,-3.65685 -2.021621,-6.58671 v -10.50646 h -3.495518 c -0.553704,0 -0.890309,-0.55171 -1.001847,-0.98989 0,0 -0.384408,-2.47376 -0.525825,-3.06132 -0.14149,-0.58757 0.141494,-0.99588 1.001851,-0.99588 h 4.021339 v -5.58287 c 0,-0.5537 0.44615,-1.00383 1.00583,-1.00383 h 3.557261 c 0.553709,0 1.013794,0.45013 1.013794,1.00383 v 5.58287 h 5.495237 c 0.862425,0 1.145251,0.40831 1.003838,0.99588 -0.141494,0.58756 -0.525821,3.06132 -0.525821,3.06132 -0.113611,0.43818 -0.448147,0.98989 -1.003838,0.98989 h -4.969416 v 10.76938 c 0,1.23687 0.08764,2.19291 0.60948,2.79043 0.557688,0.67122 1.75871,1.13132 2.995589,1.13132 0.292785,0 0.651302,-0.0239 1.01579,-0.0539 0.555696,-0.0419 0.995875,0.33461 0.987907,0.87438 l -0.03778,3.3541 c -0.0063,0.54175 -0.458102,1.06359 -1.013798,1.08948 -0.364488,0.0398 -0.748896,0.0497 -1.095461,0.0497"
       id="path4020"
       style="fill:#0c1c2c;fill-opacity:1;fill-rule:nonzero;stroke:none;stroke-width:1.5934"
       sodipodi:nodetypes="csccccccccssccccsccccscsccccsssccsccccscsccccsssccssscccsssssssscscsssssscccsccccscsccccsssccsssssssccccsssscsccscscsccccscsccccccssscsssscsccscscsccccscsccccccsssccccsssccccssccccssccssccccssccsscscsscscsssssccccssssccssssccssssccssscccscsssssscscsssssssccsssccssscccscsccscsssscsccscscsccccc" />
    <ellipse
       style="fill:#0c1c2c;fill-opacity:1;stroke-width:0.510427;stroke-linecap:square;stroke-linejoin:bevel;paint-order:markers fill stroke"
       id="path1219"
       cx="-214.00801"
       cy="-92.909973"
       rx="6.3451867"
       ry="6.5915008" />
    <g
       id="g670"
       transform="matrix(0.4093669,0,0,0.4093669,-162.24391,-90.537036)">
      <circle
         style="fill:#3d4956;fill-opacity:1;stroke-width:1.22335;stroke-linecap:square;stroke-linejoin:bevel;paint-order:markers fill stroke"
         id="path1219-0"
         cx="-126.44914"
         cy="-53.415253"
         r="15.5" />
      <circle
         style="fill:#3d4956;fill-opacity:1;stroke-width:1.22335;stroke-linecap:square;stroke-linejoin:bevel;paint-order:markers fill stroke"
         id="path1219-05"
         cx="-126.44914"
         cy="39.330509"
         r="15.5" />
      <circle
         style="fill:#3d4956;fill-opacity:1;stroke-width:1.22335;stroke-linecap:square;stroke-linejoin:bevel;paint-order:markers fill stroke"
         id="path1219-2"
         cx="-85.364403"
         cy="-29.584743"
         r="15.5" />
      <circle
         style="fill:#3d4956;fill-opacity:1;stroke-width:1.22335;stroke-linecap:square;stroke-linejoin:bevel;paint-order:markers fill stroke"
         id="path1219-9"
         cx="-85.364403"
         cy="17.432205"
         r="15.5" />
      <circle
         style="fill:#3d4956;fill-opacity:1;stroke-width:1.22335;stroke-linecap:square;stroke-linejoin:bevel;paint-order:markers fill stroke"
         id="path1219-6"
         cx="-167.73727"
         cy="16.788137"
         r="15.5" />
      <circle
         style="fill:#3d4956;fill-opacity:1;stroke-width:1.22335;stroke-linecap:square;stroke-linejoin:bevel;paint-order:markers fill stroke"
         id="path1219-6-6"
         cx="-168.38135"
         cy="-28.940676"
         r="15.5" />
    </g>
    <g
       id="g1238"
       transform="matrix(0.4093669,0,0,0.4093669,-162.24391,-90.537036)">
      <circle
         style="fill:#616b76;fill-opacity:1;stroke-width:1.22335;stroke-linecap:square;stroke-linejoin:bevel;paint-order:markers fill stroke"
         id="path1219-6-6-6"
         cx="-203.16101"
         cy="-50.194912"
         r="15.5" />
      <circle
         style="fill:#616b76;fill-opacity:1;stroke-width:1.22335;stroke-linecap:square;stroke-linejoin:bevel;paint-order:markers fill stroke"
         id="path1219-6-6-6-8"
         cx="-172.24576"
         cy="-83.042374"
         r="15.5" />
      <circle
         style="fill:#616b76;fill-opacity:1;stroke-width:1.22335;stroke-linecap:square;stroke-linejoin:bevel;paint-order:markers fill stroke"
         id="path1219-6-6-6-1"
         cx="-126.44914"
         cy="-95.279663"
         r="15.5" />
      <circle
         style="fill:#616b76;fill-opacity:1;stroke-width:1.22335;stroke-linecap:square;stroke-linejoin:bevel;paint-order:markers fill stroke"
         id="path1219-6-6-6-7"
         cx="-83.364403"
         cy="-82.3983"
         r="15.5" />
      <circle
         style="fill:#616b76;fill-opacity:1;stroke-width:1.22335;stroke-linecap:square;stroke-linejoin:bevel;paint-order:markers fill stroke"
         id="path1219-6-6-6-6"
         cx="-48.584747"
         cy="-51.483047"
         r="15.5" />
      <circle
         style="fill:#616b76;fill-opacity:1;stroke-width:1.22335;stroke-linecap:square;stroke-linejoin:bevel;paint-order:markers fill stroke"
         id="path1219-6-6-6-9"
         cx="-38.279659"
         cy="-6.3983054"
         r="15.5" />
      <circle
         style="fill:#616b76;fill-opacity:1;stroke-width:1.22335;stroke-linecap:square;stroke-linejoin:bevel;paint-order:markers fill stroke"
         id="path1219-6-6-6-0"
         cx="-51.161015"
         cy="38.686443"
         r="15.5" />
      <circle
         style="fill:#616b76;fill-opacity:1;stroke-width:1.22335;stroke-linecap:square;stroke-linejoin:bevel;paint-order:markers fill stroke"
         id="path1219-6-6-6-07"
         cx="-83.364403"
         cy="70.245773"
         r="15.5" />
      <circle
         style="fill:#616b76;fill-opacity:1;stroke-width:1.22335;stroke-linecap:square;stroke-linejoin:bevel;paint-order:markers fill stroke"
         id="path1219-6-6-6-88"
         cx="-126.44914"
         cy="81.838989"
         r="15.5" />
      <circle
         style="fill:#616b76;fill-opacity:1;stroke-width:1.22335;stroke-linecap:square;stroke-linejoin:bevel;paint-order:markers fill stroke"
         id="path1219-6-6-6-70"
         cx="-172.24576"
         cy="68.957626"
         r="15.5" />
      <circle
         style="fill:#616b76;fill-opacity:1;stroke-width:1.22335;stroke-linecap:square;stroke-linejoin:bevel;paint-order:markers fill stroke"
         id="path1219-6-6-6-85"
         cx="-201.87288"
         cy="37.398304"
         r="15.5" />
      <circle
         style="fill:#616b76;fill-opacity:1;stroke-width:1.22335;stroke-linecap:square;stroke-linejoin:bevel;paint-order:markers fill stroke"
         id="path1219-6-6-6-2"
         cx="-216.04236"
         cy="-7.6864395"
         r="15.5" />
    </g>
    <g
       id="g1257"
       transform="matrix(0.4093669,0,0,0.4093669,-162.24391,-90.537036)">
      <circle
         style="fill:#858d95;fill-opacity:1;stroke-width:1.22335;stroke-linecap:square;stroke-linejoin:bevel;paint-order:markers fill stroke"
         id="path1219-6-6-6-37"
         cx="-56.957626"
         cy="105.66949"
         r="15.5" />
      <circle
         style="fill:#858d95;fill-opacity:1;stroke-width:1.22335;stroke-linecap:square;stroke-linejoin:bevel;paint-order:markers fill stroke"
         id="path1219-6-6-6-11"
         cx="-150.99152"
         cy="123.05933"
         r="15.5" />
      <circle
         style="fill:#858d95;fill-opacity:1;stroke-width:1.22335;stroke-linecap:square;stroke-linejoin:bevel;paint-order:markers fill stroke"
         id="path1219-6-6-6-68"
         cx="-196.07628"
         cy="103.73729"
         r="15.5" />
      <circle
         style="fill:#858d95;fill-opacity:1;stroke-width:1.22335;stroke-linecap:square;stroke-linejoin:bevel;paint-order:markers fill stroke"
         id="path1219-6-6-6-261"
         cx="-232.14406"
         cy="73.466095"
         r="15.5" />
      <circle
         style="fill:#858d95;fill-opacity:1;stroke-width:1.22335;stroke-linecap:square;stroke-linejoin:bevel;paint-order:markers fill stroke"
         id="path1219-6-6-6-883"
         cx="-252.75424"
         cy="30.31356"
         r="15.5" />
      <circle
         style="fill:#858d95;fill-opacity:1;stroke-width:1.22335;stroke-linecap:square;stroke-linejoin:bevel;paint-order:markers fill stroke"
         id="path1219-6-6-6-3"
         cx="-259.19492"
         cy="-19.279659"
         r="15.5" />
      <circle
         style="fill:#858d95;fill-opacity:1;stroke-width:1.22335;stroke-linecap:square;stroke-linejoin:bevel;paint-order:markers fill stroke"
         id="path1219-6-6-6-02"
         cx="-245.02542"
         cy="-63.720337"
         r="15.5" />
      <circle
         style="fill:#858d95;fill-opacity:1;stroke-width:1.22335;stroke-linecap:square;stroke-linejoin:bevel;paint-order:markers fill stroke"
         id="path1219-6-6-6-64"
         cx="-216.68643"
         cy="-104.29662"
         r="15.5" />
      <circle
         style="fill:#858d95;fill-opacity:1;stroke-width:1.22336;stroke-linecap:square;stroke-linejoin:bevel;paint-order:markers fill stroke"
         id="path1219-6-6-6-644"
         cx="-175.46609"
         cy="-129.41525"
         r="15.5" />
      <circle
         style="fill:#858d95;fill-opacity:1;stroke-width:1.22335;stroke-linecap:square;stroke-linejoin:bevel;paint-order:markers fill stroke"
         id="path1219-6-6-6-73"
         cx="-126.44914"
         cy="-137.78812"
         r="15.5" />
      <circle
         style="fill:#858d95;fill-opacity:1;stroke-width:1.22335;stroke-linecap:square;stroke-linejoin:bevel;paint-order:markers fill stroke"
         id="path1219-6-6-6-26"
         cx="-77.56781"
         cy="-128.12712"
         r="15.5" />
      <circle
         style="fill:#858d95;fill-opacity:1;stroke-width:1.22336;stroke-linecap:square;stroke-linejoin:bevel;paint-order:markers fill stroke"
         id="path1219-6-6-6-38"
         cx="-36.991531"
         cy="-104.29662"
         r="15.5" />
      <circle
         style="fill:#858d95;fill-opacity:1;stroke-width:1.22335;stroke-linecap:square;stroke-linejoin:bevel;paint-order:markers fill stroke"
         id="path1219-6-6-6-06"
         cx="-8.6525469"
         cy="-66.296608"
         r="15.5" />
      <circle
         style="fill:#858d95;fill-opacity:1;stroke-width:1.22335;stroke-linecap:square;stroke-linejoin:bevel;paint-order:markers fill stroke"
         id="path1219-6-6-6-63"
         cx="4.8728819"
         cy="-19.279661"
         r="15.5" />
      <circle
         style="fill:#858d95;fill-opacity:1;stroke-width:1.22335;stroke-linecap:square;stroke-linejoin:bevel;paint-order:markers fill stroke"
         id="path1219-6-6-6-077"
         cx="0.36440769"
         cy="29.025423"
         r="15.5" />
      <circle
         style="fill:#858d95;fill-opacity:1;stroke-width:1.22336;stroke-linecap:square;stroke-linejoin:bevel;paint-order:markers fill stroke"
         id="path1219-6-6-6-854"
         cx="-21.533895"
         cy="70.889832"
         r="15.5" />
      <circle
         style="fill:#858d95;fill-opacity:1;stroke-width:1.22335;stroke-linecap:square;stroke-linejoin:bevel;paint-order:markers fill stroke"
         id="path1219-6-6-6-80"
         cx="-103.33052"
         cy="124.34746"
         r="15.5" />
    </g>
    <g
       aria-label="Foundation"
       id="text498"
       style="font-size:124px;font-family:NayanikaSlab;-inkscape-font-specification:NayanikaSlab;letter-spacing:-5px;word-spacing:0px;fill:#101f2f;fill-opacity:1;stroke-width:1.23213;stroke-linecap:square;stroke-linejoin:bevel;paint-order:markers fill stroke"
       transform="matrix(0.4093669,0,0,0.4093669,-162.24391,-90.537036)">
      <path
         d="M 104.48094,111.42373 V 98.776 H 92.280937 V 57.483729 h 34.404003 v -12.648 H 92.280937 V -0.5802711 H 135.45694 V 11.819729 h 12.648 v -24.924 H 67.232937 v 12.5239999 h 12.4 V 98.775729 h -12.4 v 12.648001 z"
         id="path500"
         sodipodi:nodetypes="ccccccccccccccccccc"
         style="fill:#101f2f;fill-opacity:1" />
      <path
         d="m 136.51665,70.131729 c 0,25.916 17.236,43.276001 43.152,43.276001 25.792,0 43.028,-17.360001 43.028,-43.276001 0,-25.792 -17.236,-43.028 -43.028,-43.028 -25.916,0 -43.152,17.236 -43.152,43.028 z m 12.772,0 c 0,-18.104 12.152,-30.256 30.38,-30.256 18.104,0 30.256,12.152 30.256,30.256 0,18.228 -12.152,30.504001 -30.256,30.504001 -18.228,0 -30.38,-12.276001 -30.38,-30.504001 z"
         id="path502"
         style="fill:#101f2f;fill-opacity:1" />
      <path
         d="m 229.13648,43.347729 h 9.92 v 31.496 c 0,25.916001 11.036,40.548001 32.736,40.300001 15.376,-0.248 25.048,-7.812 29.76,-17.980001 v 14.260001 h 22.568 V 98.775729 h -9.92 v -67.952 h -22.568 v 12.524 h 9.92 v 32.86 c -0.372,13.888 -9.176,27.776001 -27.652,27.528001 -17.36,-0.124 -22.196,-13.144001 -22.196,-33.604001 v -39.308 h -22.568 z"
         id="path504"
         style="fill:#101f2f;fill-opacity:1" />
      <path
         d="m 337.92437,43.347729 h 9.92 v 55.428 h -9.92 v 12.648001 h 32.488 V 98.775729 h -9.92 v -32.612 c 0.248,-14.012 9.176,-27.9 26.04,-27.652 13.516,0.124 23.808,9.052 23.808,28.644 v 31.62 h -9.92 v 12.648001 h 32.488 V 98.775729 h -9.92 v -33.852 c 0,-22.444 -13.392,-38.068 -34.72,-37.82 -14.012,0.124 -22.816,7.192 -27.776,16.492 v -12.772 h -22.568 z"
         id="path506"
         style="fill:#101f2f;fill-opacity:1" />
      <path
         d="m 521.40432,-9.1042711 h -23.684 v 12.648 h 11.16 V 44.339729 c -6.572,-10.788 -17.856,-17.236 -32.364,-17.236 -23.932,0 -41.168,17.236 -41.168,43.028 0,25.916 17.236,43.276001 41.788,43.276001 14.88,0 25.544,-6.572 31.744,-16.864001 v 14.880001 h 22.444 V 98.775729 h -9.92 z m -12.648,79.2360001 c 0,18.228 -12.152,30.504001 -30.38,30.504001 -18.104,0 -30.256,-12.276001 -30.256,-30.504001 0,-18.104 12.152,-30.256 30.256,-30.256 18.228,0 30.38,12.152 30.38,30.256 z"
         id="path508"
         style="fill:#101f2f;fill-opacity:1" />
      <path
         d="m 629.36824,30.823729 h -22.444 v 15.004 c -6.076,-11.78 -17.112,-18.724 -32.364,-18.724 -23.932,0 -41.168,17.236 -41.168,43.028 0,25.916 17.236,43.276001 41.788,43.276001 15.5,0 26.04,-7.192 31.744,-18.352001 v 16.368001 h 22.444 V 98.775729 h -9.92 v -55.428 h 9.92 z m -22.568,39.308 c 0,18.228 -12.152,30.504001 -30.38,30.504001 -18.104,0 -30.256,-12.276001 -30.256,-30.504001 0,-18.104 12.152,-30.256 30.256,-30.256 18.228,0 30.38,12.152 30.38,30.256 z"
         id="path510"
         style="fill:#101f2f;fill-opacity:1" />
      <path
         d="m 659.36808,5.28 h -12.648 v 25.543729 h -9.92 v 12.524 h 9.92 v 30.628 c 0,23.064 3.844,38.812001 22.816,38.688001 9.3,-0.124 8.54998,-0.72581 8.54998,-0.72581 l -0.084,-11.45649 c 0,0 -3.87797,0.2783 -8.34197,-0.0937 -10.664,-0.372 -10.292,-12.524001 -10.292,-28.024001 v -29.016 l 18.69383,-0.483051 v -12.524 l -18.69383,0.483051 z"
         id="path512"
         sodipodi:nodetypes="ccccccsccccsccccc"
         style="fill:#101f2f;fill-opacity:1" />
      <path
         d="m 699.51996,2.1797289 c 0,6.076 3.968,9.9200001 9.796,9.9200001 5.952,0 9.92,-3.8440001 9.92,-9.9200001 0,-5.828 -3.968,-9.796 -9.92,-9.796 -5.828,0 -9.796,3.968 -9.796,9.796 z m -4.96,41.1680001 h 9.92 v 55.428 h -9.92 v 12.648001 h 32.488 V 98.775729 h -9.92 v -67.952 h -22.568 z"
         id="path514"
         style="fill:#101f2f;fill-opacity:1" />
      <path
         d="m 733.73581,70.131729 c 0,25.916 17.236,43.276001 43.152,43.276001 25.792,0 43.028,-17.360001 43.028,-43.276001 0,-25.792 -17.236,-43.028 -43.028,-43.028 -25.916,0 -43.152,17.236 -43.152,43.028 z m 12.772,0 c 0,-18.104 12.152,-30.256 30.38,-30.256 18.104,0 30.256,12.152 30.256,30.256 0,18.228 -12.152,30.504001 -30.256,30.504001 -18.228,0 -30.38,-12.276001 -30.38,-30.504001 z"
         id="path516"
         style="fill:#101f2f;fill-opacity:1" />
      <path
         d="m 823.71951,43.347729 h 9.92 v 55.428 h -9.92 v 12.648001 h 32.488 V 98.775729 h -9.92 v -32.612 c 0.248,-14.012 9.176,-27.9 26.04,-27.652 13.516,0.124 23.808,9.052 23.808,28.644 v 31.62 h -9.92 v 12.648001 h 32.488 V 98.775729 h -9.92 v -33.852 c 0,-22.444 -13.392,-38.068 -34.72,-37.82 -14.012,0.124 -22.816,7.192 -27.776,16.492 v -12.772 h -22.568 z"
         id="path518"
         style="fill:#101f2f;fill-opacity:1" />
    </g>
  </g>
</svg>
