<?xml version="1.0" encoding="UTF-8" standalone="no"?>
<!-- Created with Inkscape (http://www.inkscape.org/) -->

<svg
   version="1.1"
   id="svg823"
   width="477.966"
   height="146.60239"
   viewBox="0 0 477.96601 146.60239"
   sodipodi:docname="logo-otf.svg"
   inkscape:version="1.2.2 (b0a8486541, 2022-12-01)"
   xmlns:inkscape="http://www.inkscape.org/namespaces/inkscape"
   xmlns:sodipodi="http://sodipodi.sourceforge.net/DTD/sodipodi-0.dtd"
   xmlns="http://www.w3.org/2000/svg"
   xmlns:svg="http://www.w3.org/2000/svg">
  <defs
     id="defs827" />
  <sodipodi:namedview
     id="namedview825"
     pagecolor="#ffffff"
     bordercolor="#000000"
     borderopacity="0.25"
     inkscape:showpageshadow="2"
     inkscape:pageopacity="0.0"
     inkscape:pagecheckerboard="0"
     inkscape:deskcolor="#d1d1d1"
     showgrid="false"
     inkscape:zoom="1.5262746"
     inkscape:cx="244.38591"
     inkscape:cy="75.346861"
     inkscape:window-width="1366"
     inkscape:window-height="699"
     inkscape:window-x="0"
     inkscape:window-y="0"
     inkscape:window-maximized="1"
     inkscape:current-layer="g829"
     showguides="true">
    <sodipodi:guide
       position="951.75441,5.8689335"
       orientation="1,0"
       id="guide662"
       inkscape:locked="false" />
  </sodipodi:namedview>
  <g
     inkscape:groupmode="layer"
     inkscape:label="Image"
     id="g829"
     transform="translate(273.62702,168.05895)">
    <g
       id="g3861"
       transform="matrix(1.2216866,0,0,1.2216866,-284.78084,-184.65829)">
      <path
         d="m 178.94765,44.104268 a 5.6902647,5.6902647 0 0 0 -5.66374,-5.884198 5.5941284,5.5941284 0 0 0 -5.62231,5.829497 5.6902647,5.6902647 0 0 0 5.66375,5.884194 5.5941284,5.5941284 0 0 0 5.60738,-5.829493 m -15.59394,0 a 9.9451178,9.9451178 0 1 1 19.89023,0 9.9451178,9.9451178 0 0 1 -19.89023,0 m 35.61512,-0.721024 a 2.96696,2.96696 0 0 0 2.27246,-0.672954 c 0.62488,-0.528748 0.98954,-1.289549 1.0028,-2.095102 0,-1.796751 -1.28955,-2.701757 -3.35814,-2.701757 h -3.19072 v 5.594129 l 3.2736,-0.122649 z m -7.40911,-9.224095 h 7.68758 c 4.48193,0 7.20192,2.59236 7.20192,6.32012 0,4.241593 -3.38632,6.42952 -7.6047,6.42952 h -3.14929 v 5.483073 h -4.16369 z m 23.1771,0 h 13.13087 v 3.580242 h -9.31526 v 3.686322 h 8.19809 v 3.580245 h -8.19809 v 3.820581 h 9.44454 v 3.565323 H 214.7219 Z m 21.54775,0 h 3.78578 l 8.74175,11.236323 V 34.159149 h 4.04767 v 18.232713 h -3.49738 l -9.03016,-11.586059 v 11.586059 h -4.04766 z m -64.14269,33.534938 h -5.47313 v -3.699586 h 14.91767 v 3.699586 h -5.48639 v 14.533128 h -3.95815 z m 17.73214,-3.699586 h 13.14413 v 3.565325 h -9.33681 v 3.701242 h 8.21799 v 3.565324 h -8.21799 v 3.835498 h 9.45284 v 3.565325 H 189.8591 Z m 21.55107,9.131275 a 8.8975653,8.8975653 0 0 1 2.70176,-6.52068 9.2207814,9.2207814 0 0 1 6.65825,-2.598993 9.3683003,9.3683003 0 0 1 7.07927,2.721648 l -2.51943,2.854248 a 6.6831188,6.6831188 0 0 0 -4.58636,-1.993992 5.3455009,5.3455009 0 0 0 -3.79572,1.659173 5.158201,5.158201 0 0 0 -1.41552,3.838814 c -0.0945,1.42547 0.40942,2.824416 1.39398,3.873624 a 5.3455009,5.3455009 0 0 0 3.81726,1.677408 6.533942,6.533942 0 0 0 4.71897,-2.071896 l 2.51942,2.502855 a 9.2622198,9.2622198 0 0 1 -7.35938,3.150945 9.1511656,9.1511656 0 0 1 -6.58201,-2.630486 8.8312643,8.8312643 0 0 1 -2.63049,-6.489188 m 24.85948,-9.104755 h 3.8786 v 7.211866 h 7.14722 v -7.211866 h 3.89185 v 18.232714 h -3.89185 v -7.319607 h -7.14722 v 7.319607 h -3.8786 z m 26.52032,0 h 3.77251 l 8.74175,11.221407 V 63.994501 h 4.06093 v 18.232714 h -3.49737 l -9.03017,-11.586063 v 11.586063 h -4.04765 z m 38.81413,9.945115 a 5.6902647,5.6902647 0 0 0 -5.66374,-5.88419 5.5941284,5.5941284 0 0 0 -5.62231,5.829494 5.6902647,5.6902647 0 0 0 5.66374,5.884196 5.5941284,5.5941284 0 0 0 5.60739,-5.8295 m -15.59394,0 a 9.9451182,9.9451182 0 1 1 19.89023,0 9.9451182,9.9451182 0 0 1 -19.89023,0 m 28.17783,-9.945115 h 4.06092 v 14.586173 h 9.19923 v 3.646541 h -13.26015 z m 33.81339,9.945115 a 5.6902647,5.6902647 0 0 0 -5.66376,-5.88419 5.5941284,5.5941284 0 0 0 -5.60736,5.829494 5.6902647,5.6902647 0 0 0 5.66373,5.884196 5.5941284,5.5941284 0 0 0 5.60739,-5.8295 m -15.58068,0 a 9.9451173,9.9451173 0 1 1 19.89023,0 9.9451173,9.9451173 0 0 1 -19.89023,0 m 26.52031,-0.802238 c 0,-2.443186 1.06081,-4.786915 2.94378,-6.50245 1.88293,-1.715529 4.43219,-2.661974 7.07592,-2.627164 2.74984,-0.132591 5.44496,0.739248 7.50857,2.424945 l -2.62548,2.895691 a 7.385907,7.385907 0 0 0 -4.9958,-1.786809 c -3.15592,0.127622 -5.60904,2.585731 -5.48968,5.504625 -0.0943,1.466904 0.47568,2.903972 1.57298,3.968103 a 5.9670707,5.9670707 0 0 0 4.2134,1.640942 7.124019,7.124019 0 0 0 3.96478,-1.057497 v -2.491253 h -4.23329 v -3.364762 h 8.29754 v 7.669344 c -2.26748,1.816637 -5.17145,2.81281 -8.17157,2.80452 -2.67359,0.125976 -5.28251,-0.790636 -7.19363,-2.526062 -1.9078,-1.735421 -2.94375,-4.130535 -2.85261,-6.603557 m 30.28455,1.955875 -7.0942,-11.047368 h 4.75214 l 4.39905,7.319607 4.47862,-7.319607 h 4.60292 l -7.08093,10.966147 v 7.266567 h -4.0576 z m -222.57172,20.4455 h 13.26016 v 3.646545 h -9.42798 v 3.888546 h 8.30915 v 3.63328 h -8.30915 v 7.06435 h -3.83218 z m 21.54775,10.261701 V 95.487369 h 4.20016 v 10.155621 c 0,2.91392 1.53983,4.43553 4.08744,4.43553 2.54761,0 4.08745,-1.45696 4.08745,-4.30292 V 95.487369 h 4.20015 v 10.129111 c 0,5.42837 -3.22057,8.10361 -8.31578,8.10361 -5.09522,0 -8.20472,-2.64872 -8.20472,-7.94449 m 24.80809,-10.288231 h 3.77252 l 8.74176,11.221411 V 95.487369 h 4.06092 v 18.232721 h -3.49736 l -9.03017,-11.59932 v 11.59932 h -4.04767 z m 30.21659,14.645851 a 5.0836124,5.0836124 0 0 0 3.88688,-1.48017 c 1.03098,-1.02766 1.5879,-2.44816 1.53321,-3.91506 a 5.2908025,5.2908025 0 0 0 -1.50669,-3.97142 5.1233929,5.1233929 0 0 0 -3.91175,-1.529888 h -3.0548 v 11.017528 l 3.0548,-0.121 z m -7.01131,-14.645851 h 7.01131 c 5.65877,0 9.56389,3.93827 9.56389,9.089841 0,5.13831 -3.90512,9.14288 -9.56389,9.14288 h -7.01131 z"
         fill="#404041"
         stroke-width="1.65752"
         id="path5385"
         style="fill:#000000" />
      <g
         fill="#25aae1"
         stroke-width="2.1127"
         transform="matrix(1.1833199,0,0,1.1833199,9.1358911,13.587236)"
         id="g5391"
         style="fill:#333333">
        <path
           d="M 25.3473,0 H 38.0235 V 12.6762 H 25.3473 Z m 0,88.7334 h 12.6762 v 12.6762 H 25.3473 Z M 12.6711,12.6762 H 25.3473 V 25.3524 H 12.6711 Z m 0,63.381 H 25.3473 V 88.7334 H 12.6711 Z M -0.0051,25.3524 H 12.6711 V 76.0572 H -0.0051 Z"
           id="path5387"
           style="fill:#333333" />
        <path
           d="M 76.0521,0 H 88.7283 V 12.6762 H 76.0521 Z m 12.6762,76.0572 h 12.6762 V 88.7334 H 88.7283 Z M 76.0521,88.7334 h 12.6762 v 12.6762 H 76.0521 Z M 88.7283,12.6762 h 12.6762 V 25.3524 H 88.7283 Z m 12.6762,12.6762 h 12.6762 v 50.7048 h -12.6762 z"
           id="path5389"
           style="fill:#333333" />
      </g>
    </g>
  </g>
</svg>
